<svg width="182" height="241" viewBox="0 0 182 241" fill="none" xmlns="http://www.w3.org/2000/svg">
<path d="M51.3854 108.376L51.4435 108.295L52.1384 106.609C52.6017 105.485 52.979 104.646 53.2704 104.091L54.1445 102.428C54.4359 101.873 54.7933 101.364 55.217 100.9L56.4878 99.5083C56.9115 99.0444 57.3006 98.5559 57.6552 98.0427L58.7191 96.5033C59.0738 95.9901 59.4438 95.4804 59.8291 94.9742L60.985 93.4555C61.3704 92.9492 61.847 92.55 62.4149 92.2579L64.1186 91.3814C64.6866 91.0892 65.2144 90.7397 65.702 90.3328L67.1651 89.1122C67.6528 88.7054 68.2045 88.4245 68.8204 88.2696L70.6681 87.8048C71.2839 87.6499 71.8958 87.5126 72.5036 87.3929L74.327 87.0337C74.9348 86.914 75.543 86.8153 76.1516 86.7378L77.9775 86.5051C78.5861 86.4276 79.0984 86.3451 79.5143 86.2577L80.7619 85.9956C81.1778 85.9082 81.3856 85.8674 81.3856 85.8674L81.3856 85.8704L81.2909 85.909L81.3854 85.8763M65.0176 108.876L65.0703 108.791L64.8586 106.953C64.7175 105.727 64.7881 104.836 65.0704 104.278L65.9173 102.605C66.1996 102.047 66.5308 101.549 66.9108 101.112L68.0508 99.7981C68.4308 99.3603 68.8435 98.9433 69.289 98.5472L70.6255 97.3588C71.071 96.9627 71.5398 96.5873 72.0319 96.2327L73.508 95.169C74 94.8144 74.2304 94.6072 74.1991 94.5475L74.1522 94.4579L74.0056 94.3637L74.0583 94.2786M120.857 108.876L120.815 108.786L121.222 106.875C121.493 105.602 121.426 104.688 121.02 104.135L119.802 102.474C119.396 101.92 119.148 101.325 119.059 100.687L118.792 98.7745C118.703 98.1369 118.508 97.5326 118.208 96.9617L117.307 95.2488C117.006 94.6779 116.566 94.2325 115.987 93.9127L114.251 92.9531C113.672 92.6332 113.147 92.2757 112.675 91.8805L111.26 90.695C110.789 90.2999 110.291 89.9329 109.766 89.594L108.191 88.5776C107.667 88.2388 107.11 87.9592 106.522 87.7388L104.758 87.0777C104.169 86.8573 103.562 86.7351 102.935 86.7111L101.055 86.6389C100.428 86.6149 100.174 86.3517 100.292 85.8492L100.646 84.3419C100.763 83.8395 101.044 83.3648 101.487 82.9178L102.816 81.5768C103.259 81.1298 103.678 80.6598 104.072 80.1666L105.256 78.6872C105.651 78.1941 105.987 77.6522 106.264 77.0617L107.095 75.2899C107.372 74.6993 107.485 74.0791 107.432 73.4291L107.274 71.4793C107.221 70.8294 107.159 70.1922 107.089 69.5677L106.876 67.6942C106.806 67.0697 106.695 66.4586 106.545 65.8608L106.093 64.0674C105.943 63.4695 105.774 62.8735 105.587 62.2794L105.027 60.4968C104.84 59.9026 104.567 59.3442 104.208 58.8215L103.13 57.2536C102.771 56.731 102.37 56.2243 101.927 55.7335L100.598 54.2612C100.155 53.7704 99.62 53.4246 98.994 53.2237L97.1159 52.6212C96.4899 52.4204 95.8673 52.2239 95.2481 52.0318L93.3905 51.4556C92.7713 51.2636 92.1421 51.2554 91.5027 51.4312L89.5848 51.9586C88.9454 52.1344 88.3026 52.1985 87.6561 52.1507L85.7168 52.0075C85.0704 51.9598 84.5013 52.1624 84.0095 52.6153L82.5342 53.974C82.0425 54.4269 81.4625 54.7188 80.7942 54.8498L78.7894 55.2429C78.1212 55.3739 77.6551 55.7424 77.3911 56.3484L76.5992 58.1663C76.3353 58.7723 76.0342 59.3413 75.696 59.8732L74.6813 61.4691C74.3431 62.0011 74.2114 62.5897 74.2862 63.2351L74.5105 65.1712C74.5852 65.8166 74.5243 66.4413 74.3277 67.0453L73.738 68.8573C73.5415 69.4613 73.5012 70.0697 73.6173 70.6824L73.9655 72.5206C74.0816 73.1333 74.2302 73.7411 74.4115 74.3439L74.9552 76.1524C75.1365 76.7552 75.4998 77.2395 76.0451 77.6054L77.6811 78.7031C78.2264 79.069 78.8153 79.3137 79.4478 79.4372L81.3452 79.8078C81.9776 79.9313 82.3937 80.1776 82.5934 80.5466L83.1925 81.6535C83.3922 82.0225 83.5036 82.2914 83.5267 82.4602L83.5613 82.7134L83.5711 83.1395L83.6307 83.2198M6.03544 2.85789C6.73544 2.8538 7.43544 2.84801 8.13544 2.84051L10.2354 2.81802C10.9354 2.81053 11.6354 2.78628 12.3354 2.74527L14.4354 2.62224C15.1354 2.58123 15.8354 2.57221 16.5354 2.5952L18.6354 2.66416C19.3354 2.68715 20.0354 2.70789 20.7354 2.72638L22.8354 2.78184C23.5354 2.80033 24.2354 2.8012 24.9354 2.78444L27.0354 2.73417C27.7354 2.71742 28.4354 2.72944 29.1354 2.77024L31.2354 2.89264C31.9354 2.93344 32.6354 2.92556 33.3354 2.86901L35.4354 2.69934C36.1354 2.64279 36.8354 2.6299 37.5354 2.66069L39.6354 2.75305C40.3354 2.78384 41.0354 2.82299 41.7354 2.8705L43.8354 3.01302C44.5354 3.06053 45.2354 3.09252 45.9354 3.10898L48.0354 3.15837C48.7354 3.17484 49.4354 3.13987 50.1354 3.05346L52.2354 2.79423C52.9354 2.70782 53.6354 2.68539 54.3354 2.72693L56.4354 2.85157C57.1354 2.89311 57.8354 2.93945 58.5354 2.99057L60.6354 3.14395C61.3354 3.19508 62.0354 3.22679 62.7354 3.23908L64.8354 3.27597C65.5354 3.28827 66.2354 3.23294 66.9354 3.10999L69.0354 2.74116C69.7354 2.61821 70.4354 2.55116 71.1354 2.54L73.2354 2.50653C73.9354 2.49538 74.6354 2.55618 75.3354 2.68894L77.4354 3.08722C78.1354 3.21998 78.8354 3.25748 79.5354 3.19972L81.6354 3.02644C82.3354 2.96867 83.0354 2.92577 83.7354 2.89774L85.8354 2.81362C86.5355 2.78559 87.2354 2.81474 87.9354 2.90108L90.0354 3.16011C90.7354 3.24645 91.4354 3.28385 92.1354 3.27231L94.2355 3.23768C94.9355 3.22614 95.6354 3.17249 96.3354 3.07675L98.4354 2.7895C99.1354 2.69376 99.8354 2.63072 100.535 2.6004L102.635 2.50944C103.335 2.47912 104.035 2.52181 104.735 2.6375L106.835 2.98458C107.535 3.10028 108.235 3.1683 108.935 3.18866L111.035 3.24972C111.735 3.27007 112.435 3.26333 113.135 3.22948L115.235 3.12792C115.935 3.09407 116.635 3.04373 117.335 2.9769L119.435 2.7764C120.135 2.70957 120.835 2.66461 121.535 2.64151L123.635 2.5722C124.335 2.5491 125.035 2.56655 125.735 2.62455L127.835 2.79855C128.535 2.85654 129.235 2.88304 129.935 2.87805L132.035 2.86305C132.735 2.85805 133.435 2.86679 134.135 2.88926L136.235 2.95667C136.935 2.97914 137.635 3.0042 138.335 3.03184L140.435 3.11476C141.135 3.1424 141.835 3.15468 142.535 3.15159L144.635 3.14234C145.335 3.13925 146.035 3.10705 146.735 3.04572L148.835 2.86174C149.535 2.80041 150.235 2.80966 150.935 2.88948L153.035 3.12895C153.735 3.20877 154.435 3.20104 155.135 3.10576L157.235 2.81991C157.935 2.72463 158.635 2.66975 159.335 2.65529L161.435 2.6119C162.135 2.59744 162.835 2.64218 163.535 2.74613L165.635 3.05797C166.335 3.16192 167.035 3.16581 167.735 3.06965L169.835 2.78117C170.535 2.68501 171.235 2.63237 171.935 2.62325L174.035 2.59588C174.735 2.58676 175.409 2.64005 176.055 2.75573L177.996 3.10279C178.642 3.21848 178.929 3.62633 178.856 4.32633L178.636 6.42633C178.563 7.12633 178.554 7.82633 178.609 8.52633L178.775 10.6263C178.83 11.3263 178.873 12.0263 178.904 12.7263L178.999 14.8263C179.03 15.5263 179.016 16.2263 178.958 16.9263L178.782 19.0263C178.724 19.7263 178.696 20.4263 178.699 21.1263L178.708 23.2263C178.711 23.9263 178.749 24.6263 178.823 25.3263L179.044 27.4263C179.118 28.1263 179.137 28.8263 179.1 29.5263L178.99 31.6263C178.954 32.3263 178.94 33.0263 178.95 33.7263L178.978 35.8263C178.988 36.5263 179.011 37.2263 179.047 37.9263L179.156 40.0263C179.192 40.7263 179.15 41.4263 179.029 42.1263L178.668 44.2263C178.547 44.9263 178.548 45.6263 178.669 46.3263L179.034 48.4263C179.156 49.1263 179.164 49.8263 179.059 50.5263L178.744 52.6263C178.639 53.3263 178.637 54.0263 178.737 54.7263L179.038 56.8263C179.139 57.5263 179.155 58.2263 179.089 58.9263L178.888 61.0263C178.822 61.7263 178.809 62.4263 178.849 63.1263L178.972 65.2263C179.013 65.9263 179.037 66.6263 179.045 67.3263L179.068 69.4263C179.076 70.1263 179.086 70.8263 179.099 71.5263L179.138 73.6263C179.151 74.3263 179.135 75.0263 179.089 75.7263L178.953 77.8263C178.908 78.5263 178.883 79.2263 178.879 79.9263L178.867 82.0263C178.863 82.7263 178.87 83.4263 178.889 84.1263L178.945 86.2263C178.963 86.9263 178.964 87.6263 178.948 88.3263L178.899 90.4263C178.883 91.1263 178.895 91.8263 178.936 92.5263L179.06 94.6263C179.102 95.3263 179.09 96.0263 179.027 96.7263L178.835 98.8263C178.772 99.5263 178.757 100.226 178.791 100.926L178.894 103.026C178.929 103.726 178.929 104.426 178.895 105.126L178.793 107.226C178.759 107.926 178.742 108.626 178.744 109.326L178.747 111.426C178.748 112.126 178.761 112.826 178.787 113.526L178.864 115.626C178.89 116.326 178.905 117.026 178.908 117.726L178.918 119.826C178.922 120.526 178.895 121.226 178.838 121.926L178.668 124.026C178.611 124.726 178.616 125.426 178.682 126.126L178.883 128.226C178.95 128.926 178.987 129.626 178.994 130.326L179.015 132.426C179.022 133.126 179.012 133.826 178.985 134.526L178.905 136.626C178.878 137.326 178.861 138.026 178.853 138.726L178.83 140.826C178.823 141.526 178.818 142.226 178.817 142.926L178.814 145.026C178.813 145.726 178.796 146.426 178.761 147.126L178.657 149.226C178.623 149.926 178.609 150.626 178.617 151.326L178.641 153.426C178.649 154.126 178.686 154.826 178.751 155.526L178.947 157.626C179.012 158.326 179.034 159.026 179.012 159.726L178.947 161.826C178.926 162.526 178.939 163.226 178.987 163.926L179.13 166.026C179.178 166.726 179.164 167.426 179.089 168.126L178.864 170.226C178.789 170.926 178.753 171.626 178.756 172.326L178.764 174.426C178.767 175.126 178.779 175.826 178.802 176.526L178.87 178.626C178.893 179.326 178.937 180.026 179.003 180.726L179.202 182.826C179.268 183.526 179.282 184.226 179.244 184.926L179.13 187.026C179.093 187.726 179.056 188.426 179.021 189.126L178.915 191.226C178.88 191.926 178.895 192.626 178.96 193.326L179.156 195.426C179.222 196.126 179.215 196.826 179.135 197.526L178.897 199.626C178.818 200.326 178.778 201.026 178.778 201.726L178.778 203.826C178.778 204.526 178.821 205.226 178.907 205.926L179.164 208.026C179.25 208.726 179.255 209.426 179.178 210.126L178.948 212.226C178.871 212.926 178.818 213.626 178.787 214.326L178.696 216.426C178.666 217.126 178.654 217.826 178.661 218.526L178.683 220.626C178.69 221.326 178.706 222.026 178.732 222.726L178.81 224.826C178.836 225.526 178.866 226.226 178.899 226.926L178.998 229.026C179.031 229.726 179.02 230.426 178.966 231.126L178.803 233.226C178.748 233.926 178.685 234.609 178.612 235.275L178.394 237.272C178.322 237.937 177.935 238.229 177.235 238.147L175.135 237.899C174.435 237.817 173.735 237.772 173.035 237.765L170.935 237.744C170.235 237.738 169.535 237.763 168.835 237.82L166.735 237.992C166.035 238.05 165.335 238.071 164.635 238.057L162.535 238.014C161.835 237.999 161.135 237.997 160.435 238.008L158.335 238.041C157.635 238.052 156.935 238.074 156.235 238.107L154.135 238.204C153.435 238.236 152.735 238.211 152.035 238.128L149.935 237.877C149.235 237.794 148.535 237.768 147.835 237.801L145.735 237.898C145.035 237.93 144.335 237.945 143.635 237.944L141.535 237.939C140.835 237.938 140.135 237.911 139.435 237.858L137.335 237.701C136.635 237.649 135.935 237.675 135.235 237.779L133.135 238.093C132.435 238.198 131.735 238.244 131.035 238.232L128.935 238.197C128.235 238.185 127.535 238.147 126.835 238.084L124.735 237.893C124.035 237.829 123.335 237.836 122.635 237.912L120.535 238.142C119.835 238.219 119.135 238.193 118.435 238.065L116.335 237.68C115.635 237.552 114.935 237.517 114.235 237.574L112.135 237.746C111.435 237.803 110.735 237.835 110.035 237.841L107.935 237.859C107.235 237.865 106.535 237.869 105.835 237.873L103.735 237.882C103.035 237.885 102.335 237.88 101.635 237.865L99.5354 237.822C98.8354 237.807 98.1354 237.814 97.4354 237.841L95.3354 237.923C94.6354 237.951 93.9354 237.987 93.2354 238.032L91.1354 238.168C90.4354 238.213 89.7354 238.239 89.0354 238.246L86.9354 238.267C86.2354 238.274 85.5354 238.227 84.8354 238.128L82.7354 237.829C82.0354 237.729 81.3354 237.694 80.6354 237.724L78.5354 237.814C77.8354 237.844 77.1354 237.873 76.4354 237.902L74.3354 237.99C73.6354 238.019 72.9354 238.016 72.2354 237.982L70.1354 237.878C69.4354 237.844 68.7354 237.824 68.0354 237.817L65.9354 237.798C65.2354 237.792 64.5354 237.798 63.8354 237.818L61.7354 237.876C61.0354 237.895 60.3354 237.876 59.6354 237.82L57.5354 237.65C56.8354 237.593 56.1354 237.599 55.4354 237.667L53.3354 237.871C52.6354 237.939 51.9354 237.966 51.2354 237.95L49.1354 237.903C48.4354 237.887 47.7354 237.875 47.0354 237.866L44.9354 237.84C44.2354 237.832 43.5354 237.825 42.8354 237.82L40.7354 237.804C40.0354 237.799 39.3354 237.786 38.6354 237.764L36.5354 237.699C35.8354 237.677 35.1354 237.696 34.4354 237.755L32.3354 237.931C31.6354 237.99 30.9354 237.989 30.2354 237.928L28.1354 237.746C27.4354 237.685 26.7354 237.645 26.0354 237.626L23.9354 237.57C23.2354 237.551 22.5354 237.541 21.8354 237.54L19.7354 237.536C19.0354 237.535 18.3354 237.563 17.6354 237.62L15.5354 237.791C14.8354 237.849 14.1354 237.856 13.4354 237.814L11.3354 237.688C10.6354 237.645 9.9354 237.648 9.2354 237.695L7.13541 237.837C6.43541 237.884 5.85336 237.822 5.38926 237.65L3.99696 237.134C3.53287 236.962 3.24959 236.526 3.14714 235.826L2.83977 233.726C2.73732 233.026 2.7177 232.326 2.78091 231.626L2.97053 229.526C3.03374 228.826 3.05185 228.126 3.02485 227.426L2.94388 225.326C2.91689 224.626 2.90205 223.926 2.89937 223.226L2.89133 221.126C2.88864 220.426 2.90037 219.726 2.92652 219.026L3.00494 216.926C3.03108 216.226 3.06154 215.526 3.09631 214.826L3.20061 212.726C3.23537 212.026 3.21705 211.326 3.14563 210.626L2.93136 208.526C2.85994 207.826 2.85744 207.126 2.92384 206.426L3.12305 204.326C3.18945 203.626 3.21912 202.926 3.21206 202.226L3.19088 200.126C3.18382 199.426 3.16415 198.726 3.13187 198.026L3.03501 195.926C3.00273 195.226 2.9996 194.526 3.02564 193.826L3.10376 191.726C3.1298 191.026 3.10787 190.326 3.03796 189.626L2.82826 187.526C2.75836 186.826 2.74038 186.126 2.77431 185.426L2.87611 183.326C2.91005 182.626 2.95034 181.926 2.99697 181.226L3.13689 179.126C3.18353 178.426 3.194 177.726 3.16829 177.026L3.09118 174.926C3.06548 174.226 3.00512 173.526 2.91009 172.826L2.62502 170.726C2.52999 170.026 2.52653 169.326 2.61463 168.626L2.87892 166.526C2.96702 165.826 2.99418 165.126 2.96041 164.426L2.85908 162.326C2.8253 161.626 2.81507 160.926 2.8284 160.226L2.86837 158.126C2.88169 157.426 2.88312 156.726 2.87266 156.026L2.84127 153.926C2.83081 153.226 2.8435 152.526 2.87934 151.826L2.98686 149.726C3.0227 149.026 3.05896 148.326 3.09565 147.626L3.2057 145.526C3.24239 144.826 3.24281 144.126 3.20697 143.426L3.09944 141.326C3.0636 140.626 2.99891 139.926 2.90536 139.226L2.62472 137.126C2.53118 136.426 2.54761 135.726 2.67402 135.026L3.05325 132.926C3.17966 132.226 3.20361 131.526 3.12509 130.826L2.88955 128.726C2.81104 128.026 2.76273 127.326 2.74464 126.626L2.69037 124.526C2.67228 123.826 2.70774 123.126 2.79676 122.426L3.06382 120.326C3.15284 119.626 3.15445 118.926 3.06866 118.226L2.81126 116.126C2.72546 115.426 2.69802 114.726 2.72892 114.026L2.82165 111.926C2.85255 111.226 2.88829 110.526 2.92884 109.826L3.05052 107.726C3.09108 107.026 3.07282 106.326 2.99574 105.626L2.7645 103.526C2.68742 102.826 2.69372 102.126 2.78339 101.426L3.0524 99.3263C3.14207 98.6263 3.1743 97.9263 3.14909 97.2263L3.07347 95.1263C3.04826 94.4263 3.00476 93.7263 2.94297 93.0263L2.75758 90.9263C2.69579 90.2263 2.67131 89.5263 2.68416 88.8263L2.72268 86.7263C2.73552 86.0263 2.78216 85.3263 2.86258 84.6263L3.10386 82.5263C3.18429 81.8263 3.18971 81.1263 3.12013 80.4263L2.91139 78.3263C2.84181 77.6263 2.8159 76.9263 2.83368 76.2263L2.88699 74.1263C2.90476 73.4263 2.90455 72.7263 2.88636 72.0263L2.83179 69.9263C2.8136 69.2263 2.83626 68.5263 2.89976 67.8263L3.09028 65.7263C3.15378 65.0263 3.19019 64.3263 3.19948 63.6263L3.22737 61.5263C3.23667 60.8263 3.18392 60.1263 3.06914 59.4263L2.72478 57.3263C2.61 56.6263 2.58858 55.9263 2.66052 55.2263L2.87635 53.1263C2.94829 52.4263 2.98341 51.7263 2.98171 51.0263L2.97662 48.9263C2.97493 48.2263 2.94733 47.5263 2.89383 46.8263L2.73334 44.7263C2.67984 44.0263 2.67532 43.3263 2.71978 42.6263L2.85317 40.5263C2.89763 39.8263 2.90251 39.1263 2.86779 38.4263L2.76366 36.3263C2.72894 35.6263 2.70163 34.9263 2.6817 34.2263L2.62193 32.1263C2.60201 31.4263 2.63375 30.7263 2.71714 30.0263L2.96734 27.9262C3.05074 27.2262 3.07164 26.5262 3.03006 25.8263L2.90532 23.7263C2.86374 23.0263 2.86811 22.3263 2.91845 21.6263L3.06945 19.5263C3.11979 18.8263 3.15245 18.1263 3.16743 17.4263L3.21238 15.3263C3.22736 14.6263 3.2018 13.9263 3.1357 13.2263L2.93741 11.1263C2.87131 10.4263 2.80823 9.72627 2.74817 9.02626L2.56797 6.92626C2.50791 6.22626 2.48765 5.62626 2.5072 5.12627L2.56585 3.6263C2.5854 3.12631 2.61936 2.87631 2.66774 2.87631H2.81287C2.86125 2.87631 3.23544 2.87427 3.93544 2.87017L6.03544 2.85789ZM131.332 119.419C130.876 119.625 130.416 119.821 129.952 120.007L128.559 120.565C128.095 120.752 127.62 120.91 127.134 121.039L125.676 121.429C125.19 121.559 124.724 121.741 124.279 121.975L122.943 122.678C122.498 122.913 122.04 123.116 121.571 123.287L120.161 123.801C119.691 123.973 119.211 124.117 118.72 124.234L117.247 124.586C116.756 124.703 116.357 124.938 116.05 125.289L115.13 126.342C114.823 126.694 114.701 127.119 114.763 127.619L114.949 129.119C115.01 129.619 115.002 130.119 114.924 130.619L114.688 132.119C114.61 132.619 114.574 133.119 114.582 133.619L114.606 135.119C114.614 135.619 114.636 136.119 114.671 136.619L114.776 138.119C114.811 138.619 114.838 139.119 114.858 139.619L114.918 141.119C114.938 141.619 114.964 142.119 114.995 142.619L115.089 144.119C115.121 144.619 115.123 145.119 115.096 145.619L115.015 147.119C114.988 147.619 114.941 148.119 114.873 148.619L114.668 150.119C114.6 150.619 114.612 151.119 114.705 151.619L114.981 153.119C115.073 153.619 115.112 154.119 115.098 154.619L115.056 156.119C115.042 156.619 115.016 157.119 114.979 157.619L114.866 159.119C114.828 159.619 114.822 160.119 114.847 160.619L114.923 162.119C114.949 162.619 114.966 163.119 114.975 163.619L115.003 165.119C115.012 165.619 115.014 166.119 115.009 166.619L114.995 168.119C114.991 168.619 114.992 169.119 115 169.619L115.023 171.119C115.031 171.619 115.006 172.119 114.948 172.619L114.774 174.119C114.716 174.619 114.87 174.937 115.235 175.071L116.331 175.475C116.696 175.61 117.128 175.667 117.628 175.647L119.128 175.587C119.628 175.567 120.128 175.589 120.628 175.651L122.128 175.839C122.628 175.902 123.128 175.953 123.628 175.992L125.128 176.11C125.628 176.149 126.128 176.165 126.628 176.158L128.128 176.137C128.628 176.13 129.128 176.132 129.628 176.143L131.128 176.178C131.628 176.19 132.128 176.146 132.628 176.047L134.128 175.75C134.628 175.651 135.042 175.707 135.37 175.919L136.352 176.552C136.68 176.764 136.864 177.119 136.906 177.619L137.03 179.119C137.071 179.619 137.07 180.119 137.026 180.619L136.893 182.119C136.849 182.619 136.815 183.119 136.791 183.619L136.721 185.119C136.697 185.619 136.682 186.119 136.676 186.619L136.656 188.119C136.65 188.619 136.501 188.954 136.208 189.124L135.331 189.634C135.039 189.804 134.643 189.884 134.143 189.875L132.643 189.847C132.143 189.838 131.643 189.829 131.143 189.821L129.643 189.795C129.143 189.787 128.643 189.777 128.143 189.768L126.643 189.739C126.143 189.729 125.643 189.752 125.143 189.808L123.643 189.977C123.143 190.034 122.643 190.033 122.143 189.976L120.643 189.804C120.143 189.747 119.643 189.757 119.143 189.832L117.643 190.06C117.143 190.136 116.643 190.158 116.143 190.128L114.643 190.036C114.143 190.005 113.643 189.988 113.143 189.983L111.643 189.97C111.143 189.966 110.643 189.931 110.143 189.865L108.643 189.669C108.143 189.604 107.643 189.615 107.143 189.704L105.643 189.97C105.143 190.059 104.643 190.094 104.143 190.077L102.643 190.023C102.143 190.005 101.643 189.981 101.143 189.949L99.6426 189.855C99.1426 189.824 98.6426 189.804 98.1426 189.795L96.6426 189.767C96.1426 189.758 95.6426 189.782 95.1426 189.839L93.6426 190.01C93.1426 190.067 92.6426 190.052 92.1426 189.965L90.6426 189.704C90.1426 189.618 89.6426 189.583 89.1426 189.6L87.6426 189.653C87.1426 189.67 86.6426 189.704 86.1426 189.754L84.6426 189.905C84.1426 189.956 83.6426 189.963 83.1426 189.928L81.6426 189.821C81.1426 189.785 80.6426 189.786 80.1426 189.821L78.6426 189.929C78.1426 189.965 77.6426 189.966 77.1426 189.934L75.6426 189.838C75.1426 189.806 74.6426 189.823 74.1426 189.89L72.6426 190.091C72.1426 190.158 71.6426 190.188 71.1426 190.182L69.6426 190.161C69.1426 190.154 68.6426 190.12 68.1426 190.058L66.6426 189.874C66.1426 189.813 65.6426 189.772 65.1426 189.752L63.6426 189.692C63.1426 189.672 62.6426 189.688 62.1426 189.74L60.6426 189.894C60.1426 189.946 59.6426 189.987 59.1426 190.017L57.6426 190.108C57.1426 190.139 56.6426 190.129 56.1426 190.08L54.6426 189.933C54.1426 189.884 53.6426 189.882 53.1426 189.926L51.6426 190.058C51.1426 190.102 50.6426 190.106 50.1426 190.072L48.6426 189.967C48.1426 189.933 47.6426 189.905 47.1426 189.883L45.6426 189.819C45.1426 189.797 44.8073 189.628 44.6367 189.311L44.1248 188.359C43.9542 188.042 43.8439 187.633 43.7939 187.133L43.6437 185.633C43.5937 185.133 43.5723 184.633 43.5796 184.133L43.6014 182.633C43.6087 182.133 43.6491 181.633 43.7225 181.133L43.9429 179.633C44.0163 179.133 44.0428 178.633 44.0221 178.133L43.9602 176.633C43.9396 176.133 44.175 175.874 44.6665 175.854L46.1411 175.795C46.6326 175.776 47.1283 175.766 47.6283 175.766L49.1283 175.766C49.6283 175.766 50.1283 175.776 50.6283 175.796L52.1283 175.857C52.6283 175.877 53.1283 175.886 53.6283 175.884L55.1283 175.878C55.6283 175.876 56.1283 175.871 56.6283 175.862L58.1283 175.838C58.6283 175.83 59.1283 175.848 59.6283 175.894L61.1283 176.03C61.6283 176.075 62.1283 176.072 62.6283 176.021L64.1283 175.868C64.6283 175.817 64.9434 175.632 65.0735 175.314L65.4639 174.36C65.594 174.042 65.6625 173.633 65.6692 173.133L65.6895 171.633C65.6963 171.133 65.7342 170.633 65.8032 170.133L66.0102 168.633C66.0792 168.133 66.0871 167.633 66.0341 167.133L65.8749 165.633C65.8219 165.133 65.8217 164.633 65.8745 164.133L66.033 162.633C66.0858 162.133 66.1129 161.633 66.1145 161.133L66.1191 159.633C66.1206 159.133 66.1031 158.633 66.0665 158.133L65.9566 156.633C65.92 156.133 65.9262 155.633 65.9752 155.133L66.1224 153.633C66.1714 153.133 66.1792 152.633 66.1458 152.133L66.0454 150.633C66.0119 150.133 65.9777 149.633 65.9426 149.133L65.8375 147.633C65.8025 147.133 65.7877 146.633 65.7931 146.133L65.8094 144.633C65.8149 144.133 65.8496 143.633 65.9137 143.133L66.1059 141.633C66.17 141.133 66.1757 140.633 66.1231 140.133L65.9651 138.633C65.9125 138.133 65.9063 137.633 65.9466 137.133L66.0675 135.633C66.1077 135.133 66.1187 134.633 66.1004 134.133L66.0456 132.633C66.0273 132.133 66.0176 131.633 66.0166 131.133L66.0135 129.633C66.0124 129.133 65.9737 128.668 65.8972 128.238L65.6678 126.947C65.5913 126.517 65.3229 126.204 64.8626 126.008L63.4817 125.421C63.0214 125.225 62.5582 125.037 62.092 124.856L60.6934 124.314C60.2272 124.133 59.7718 123.925 59.327 123.69L57.9928 122.983C57.548 122.748 57.0856 122.557 56.6056 122.412L55.1654 121.976C54.6853 121.831 54.2108 121.671 53.7418 121.497L52.3349 120.977C51.8659 120.803 51.4004 120.62 50.9384 120.429L49.5523 119.855C49.0902 119.664 48.6366 119.453 48.1912 119.223L46.8552 118.533C46.4098 118.303 46.2032 117.938 46.2354 117.438L46.3318 115.938C46.364 115.438 46.3629 114.938 46.3287 114.438L46.2259 112.938C46.1916 112.438 46.2025 111.938 46.2585 111.438L46.4266 109.938C46.4827 109.438 46.7243 109.142 47.1516 109.051L48.4333 108.778C48.8606 108.687 49.3242 108.66 49.8242 108.696L51.3242 108.805C51.8242 108.841 52.3242 108.851 52.8242 108.836L54.3242 108.789C54.8242 108.773 55.3242 108.776 55.8242 108.798L57.3242 108.864C57.8242 108.886 58.3242 108.906 58.8242 108.924L60.3242 108.977C60.8242 108.995 61.3242 108.992 61.8242 108.967L63.3242 108.894C63.8242 108.869 64.3242 108.85 64.8242 108.836L66.3242 108.793C66.8242 108.778 67.3242 108.793 67.8242 108.837L69.3242 108.967C69.8242 109.011 70.3242 109.025 70.8242 109.01L72.3242 108.965C72.8242 108.95 73.3242 108.938 73.8242 108.929L75.3242 108.902C75.8242 108.893 76.3242 108.909 76.8242 108.95L78.3242 109.073C78.8242 109.115 79.3242 109.123 79.8242 109.099L81.3242 109.027C81.8242 109.003 82.3242 108.964 82.8242 108.911L84.3242 108.75C84.8242 108.696 85.3242 108.712 85.8242 108.797L87.3242 109.053C87.8242 109.138 88.3242 109.15 88.8242 109.088L90.3242 108.901C90.8242 108.839 91.3242 108.813 91.8242 108.821L93.3242 108.847C93.8242 108.856 94.3242 108.87 94.8242 108.888L96.3242 108.943C96.8242 108.961 97.3242 108.964 97.8242 108.952L99.3242 108.916C99.8242 108.904 100.324 108.901 100.824 108.906L102.324 108.924C102.824 108.929 103.324 108.939 103.824 108.953L105.324 108.993C105.824 109.006 106.324 109.028 106.824 109.059L108.324 109.15C108.824 109.181 109.324 109.187 109.824 109.171L111.324 109.121C111.824 109.104 112.324 109.062 112.824 108.994L114.324 108.79C114.824 108.722 115.324 108.717 115.824 108.775L117.324 108.949C117.824 109.006 118.324 109.021 118.824 108.993L120.324 108.909C120.824 108.88 121.324 108.882 121.824 108.914L123.324 109.01C123.824 109.042 124.324 109.043 124.824 109.012L126.324 108.92C126.824 108.89 127.324 108.876 127.824 108.879L129.324 108.889C129.824 108.892 130.324 108.868 130.824 108.816L132.324 108.661C132.824 108.609 133.126 108.832 133.229 109.329L133.54 110.82C133.643 111.317 133.659 111.815 133.585 112.315L133.366 113.815C133.293 114.315 133.266 114.815 133.286 115.315L133.347 116.815C133.367 117.315 133.378 117.642 133.379 117.797L133.383 118.26C133.385 118.414 133.157 118.595 132.701 118.801L131.332 119.419ZM49.4039 118.825C49.8524 119.051 50.322 119.223 50.8125 119.342L52.284 119.698C52.7745 119.816 53.2524 119.967 53.7177 120.15L55.1137 120.699C55.579 120.882 56.0445 121.065 56.5101 121.247L57.907 121.793C58.3726 121.975 58.8337 122.169 59.2901 122.375L60.6593 122.992C61.1157 123.198 61.5742 123.398 62.035 123.593L63.4172 124.177C63.878 124.372 64.2644 124.423 64.5764 124.333L65.5125 124.06C65.8246 123.969 65.981 123.673 65.9817 123.173L65.984 121.673C65.9848 121.173 66.223 120.938 66.6985 120.968L68.125 121.056C68.6005 121.085 69.0883 121.054 69.5883 120.964L71.0883 120.692C71.5883 120.602 72.0883 120.559 72.5883 120.565L74.0883 120.581C74.5883 120.587 75.0883 120.589 75.5883 120.586L77.0883 120.579C77.5883 120.577 78.0883 120.618 78.5883 120.701L80.0883 120.952C80.5883 121.036 81.0883 121.054 81.5883 121.007L83.0883 120.866C83.5883 120.818 84.0883 120.821 84.5883 120.874L86.0883 121.032C86.5883 121.084 87.0883 121.078 87.5883 121.012L89.0883 120.815C89.5883 120.75 90.0883 120.721 90.5883 120.728L92.0883 120.751C92.5883 120.759 93.0883 120.787 93.5883 120.837L95.0883 120.986C95.5883 121.036 96.0883 121.057 96.5883 121.049L98.0883 121.026C98.5883 121.018 99.0883 120.987 99.5883 120.931L101.088 120.766C101.588 120.71 102.088 120.674 102.588 120.656L104.088 120.602C104.588 120.584 105.088 120.62 105.588 120.709L107.088 120.977C107.588 121.066 108.088 121.111 108.588 121.112L110.088 121.114C110.588 121.115 111.088 121.094 111.588 121.05L113.088 120.917C113.588 120.873 113.92 121.016 114.085 121.346L114.577 122.335C114.741 122.664 114.926 122.963 115.13 123.232L115.743 124.037C115.947 124.305 116.279 124.34 116.739 124.143L118.119 123.552C118.578 123.355 119.041 123.164 119.506 122.98L120.9 122.428C121.365 122.244 121.828 122.055 122.29 121.863L123.674 121.285C124.136 121.092 124.606 120.923 125.086 120.777L126.526 120.339C127.006 120.194 127.464 119.992 127.9 119.733L129.207 118.959C129.643 118.7 130.049 118.477 130.424 118.288L131.551 117.721C131.926 117.532 132.135 117.188 132.176 116.688L132.301 115.188C132.342 114.688 132.345 114.188 132.309 113.688L132.201 112.188C132.166 111.688 132.048 111.318 131.847 111.077L131.247 110.357C131.047 110.117 130.697 109.973 130.197 109.927L128.697 109.789C128.197 109.743 127.697 109.729 127.197 109.748L125.697 109.805C125.197 109.824 124.697 109.861 124.197 109.915L122.697 110.078C122.197 110.132 121.697 110.153 121.197 110.141L119.697 110.104C119.197 110.092 118.697 110.062 118.197 110.015L116.697 109.873C116.197 109.826 115.697 109.817 115.197 109.847L113.697 109.939C113.197 109.969 112.697 109.975 112.197 109.956L110.697 109.9C110.197 109.881 109.697 109.878 109.197 109.891L107.697 109.93C107.197 109.943 106.697 109.954 106.197 109.962L104.697 109.987C104.197 109.996 103.697 109.968 103.197 109.903L101.697 109.711C101.197 109.647 100.697 109.614 100.197 109.612L98.6969 109.608C98.1969 109.607 97.6969 109.605 97.1969 109.603L95.6969 109.597C95.1969 109.596 94.6969 109.637 94.1969 109.722L92.6969 109.977C92.1969 110.062 91.6969 110.107 91.1969 110.112L89.6969 110.127C89.1969 110.132 88.6969 110.095 88.1969 110.015L86.6969 109.778C86.1969 109.699 85.6969 109.689 85.1969 109.747L83.6969 109.921C83.1969 109.979 82.6969 109.997 82.1969 109.976L80.6969 109.913C80.1969 109.892 79.6969 109.869 79.1969 109.843L77.6969 109.765C77.1969 109.739 76.6969 109.741 76.1969 109.773L74.6969 109.867C74.1969 109.898 73.6969 109.915 73.1969 109.917L71.6969 109.924C71.1969 109.927 70.6969 109.926 70.1969 109.921L68.6969 109.908C68.1969 109.904 67.6969 109.882 67.1969 109.843L65.6969 109.728C65.1969 109.689 64.6969 109.688 64.1969 109.724L62.6969 109.833C62.1969 109.869 61.6969 109.909 61.1969 109.952L59.6969 110.083C59.1969 110.126 58.6969 110.144 58.1969 110.137L56.6969 110.114C56.1969 110.107 55.6969 110.068 55.1969 109.999L53.6969 109.79C53.1969 109.721 52.6969 109.678 52.1969 109.663L50.6969 109.619C50.1969 109.604 49.7567 109.656 49.3763 109.776L48.2352 110.135C47.8548 110.255 47.6534 110.565 47.631 111.065L47.5638 112.565C47.5413 113.065 47.5352 113.565 47.5452 114.065L47.5754 115.565C47.5854 116.065 47.5734 116.439 47.5392 116.688L47.4367 117.435C47.4025 117.684 47.6097 117.922 48.0583 118.148L49.4039 118.825ZM83.8691 84.482C84.421 84.1722 85.0168 84.0215 85.6563 84.0301L87.5748 84.0558C88.2143 84.0644 88.8249 84.0784 89.4066 84.0979L91.1516 84.1563C91.7333 84.1757 92.1442 84.4161 92.3843 84.8773L93.1045 86.2609C93.3446 86.7221 93.1641 87.0432 92.5631 87.2243L90.76 87.7677C90.1589 87.9489 89.5449 88.0544 88.9177 88.0845L87.0363 88.1745C86.4092 88.2046 85.7913 88.1219 85.1824 87.9265L83.356 87.3404C82.7472 87.145 82.3547 86.9497 82.1785 86.7546L81.6498 86.1691C81.4736 85.9739 81.6614 85.7214 82.2133 85.4115L83.8691 84.482Z" stroke="black" stroke-width="5" stroke-linecap="round"/>
</svg>
