<svg width="403" height="424" viewBox="0 0 403 424" fill="none" xmlns="http://www.w3.org/2000/svg">
<path fill-rule="evenodd" clip-rule="evenodd" d="M84 0C91.732 3.22129e-07 98 6.26801 98 14V21H131V14C131 6.26801 137.268 0 145 0H146C153.732 3.22129e-07 160 6.26801 160 14V21H193V14C193 6.26801 199.268 0 207 0H208C215.732 3.22129e-07 222 6.26801 222 14V21H255V14C255 6.26801 261.268 0 269 0H270C277.732 3.22129e-07 284 6.26801 284 14V21H317V14C317 6.26801 323.268 0 331 0H332C339.732 3.22129e-07 346 6.26801 346 14V22.7598C378.621 30.0542 403 59.1796 403 94V351C403 391.317 370.317 424 330 424H73L72.0566 423.994C32.1746 423.489 0 391.002 0 351V94C0 55.0253 30.5435 23.1851 69 21.1084V14C69 6.26801 75.268 0 83 0H84ZM29 132V351C29 375.301 48.6995 395 73 395H330C354.301 395 374 375.301 374 351V132H29ZM98 55C98 62.732 91.732 69 84 69H83C75.268 69 69 62.732 69 55V50.1826C46.5741 52.2037 29 71.0479 29 94V107H374V94C374 75.3442 362.389 59.4006 346 53V55C346 62.732 339.732 69 332 69H331C323.268 69 317 62.732 317 55V50H284V55C284 62.732 277.732 69 270 69H269C261.268 69 255 62.732 255 55V50H222V55C222 62.732 215.732 69 208 69H207C199.268 69 193 62.732 193 55V50H160V55C160 62.732 153.732 69 146 69H145C137.268 69 131 62.732 131 55V50H98V55Z" fill="#151313"/>
<path d="M99 175H136V212H99V175Z" fill="#151313"/>
<path d="M99 246H136V283H99V246Z" fill="#151313"/>
<path d="M99 317H136V354H99V317Z" fill="#151313"/>
<path d="M183 175H220V212H183V175Z" fill="#151313"/>
<path d="M183 246H220V283H183V246Z" fill="#151313"/>
<path d="M183 317H220V354H183V317Z" fill="#151313"/>
<path d="M267 175H304V212H267V175Z" fill="#151313"/>
<path d="M267 246H304V283H267V246Z" fill="#151313"/>
<path d="M267 317H304V354H267V317Z" fill="#151313"/>
</svg>
