<svg width="179" height="242" viewBox="0 0 179 242" fill="none" xmlns="http://www.w3.org/2000/svg">

<defs>
<filter id="rough">
    <feTurbulence type="fractalNoise" baseFrequency="0.8" numOctaves="20" result="noise"/>
    <feDisplacementMap in="SourceGraphic" in2="noise" scale="2"/>
</filter>
</defs>

<path filter="url(#rough)" d="M71.4851 60.5988C72.3669 60.4425 74.7741 60.5003 75.7041 60.5771C81.9053 61.0922 87.6705 63.9576 91.8098 68.5815C93.7562 70.7534 95.5423 73.358 97.5675 75.6544C101.696 80.3327 106.152 84.9139 111.321 88.4622C114.036 90.3261 118.422 92.2341 121.538 93.4004C130.771 96.755 138.172 101.002 144.552 108.563C151.471 116.765 150.964 126.852 144.092 134.926C142.413 136.899 140.276 138.65 138.447 140.58C137.013 142.093 135.134 143.953 133.581 145.412C127.639 148.822 130.906 138.558 131.204 137.138C130.512 137.901 125.531 143.022 124.943 143.327C118.987 146.42 122.436 137.103 123.022 134.843C122.186 134.784 121.866 134.764 121.048 134.562C120.444 135.119 119.655 135.678 118.99 136.176C116.767 137.844 114.553 139.53 112.299 141.155C111.668 141.61 110.937 141.988 110.136 141.776C107.959 141.202 108.541 139.047 108.982 137.434C109.222 136.531 109.448 135.637 109.681 134.751C108.242 135.323 106.714 135.906 105.299 136.527C96.068 140.578 101.545 131.443 103.617 127.787C100.147 125.609 95.4096 121.194 92.4995 118.36C80.3833 116.57 68.0114 115.063 55.857 113.371C59.0909 115.359 62.4352 117.611 65.6255 119.594C73.6942 124.609 78.1882 127.501 81.8402 136.674C84.273 142.773 84.6964 145.143 88.9885 150.146C90.289 149.085 94.3995 146.179 95.9929 146.161C98.634 146.131 97.8905 151.26 97.8542 153.255C102.079 151.311 106.964 147.204 106.439 154.926C106.359 156.099 106.422 157.577 106.412 158.783C108.552 157.31 114.406 151.556 114.884 156.689C115.062 158.606 114.961 161.83 114.965 163.869C116.878 163.052 118.645 161.86 120.593 161.155C121.859 160.697 123.392 161.61 123.376 162.516C123.342 164.282 121.666 173.851 120.955 174.869C118.728 178.059 112.913 181.495 109.249 182.23C107.452 182.606 105.595 182.59 103.803 182.181C97.9318 180.844 88.6155 174.51 83.5293 171.26C81.8699 170.375 79.2745 167.897 77.6242 167.298C69.7292 164.437 62.4256 163.545 55.1941 158.761C47.3615 153.595 41.7137 145.741 39.3279 136.697C39.1192 135.898 38.9054 135.1 38.7672 134.285C38.5177 132.817 38.5232 130.85 37.8118 129.527C36.4471 126.991 29.7697 118.333 29.5145 116.515C29.4415 115.995 29.6563 115.529 29.8914 115.075C30.6197 113.666 31.6949 112.361 32.5801 111.042L37.8809 103.082C38.1029 102.754 38.4875 102.078 38.8388 101.904C40.2412 101.208 44.1555 101.813 46.2876 101.381C47.1251 101.211 48.728 100.923 49.1386 100.088C50.3723 97.5792 42.8348 93.1816 42.4193 91.3846C42.293 90.8387 42.3795 90.2282 42.4842 89.6852C42.7848 88.126 46.5414 73.2395 47.0277 72.5906C47.8706 71.4656 62.3564 63.1197 64.4296 62.2723C66.7093 61.3405 69.0423 60.8474 71.4851 60.5988Z" fill="black"/>
<path filter="url(#rough)" d="M72.3338 64.8353C76.107 64.3355 81.1187 65.8284 84.3299 67.8454C88.7282 70.6083 91.1464 74.9527 94.6286 78.8393C98.7504 83.4396 102.223 86.9689 107.095 90.7391C114.836 96.7286 124.914 98.1239 132.755 103.625C137.524 106.971 144.052 112.786 144.954 118.734C145.758 124.056 144.384 127.111 141.469 131.272C135.278 131.495 129.112 131.098 122.952 130.536C114.692 129.784 109.376 127.036 102.922 121.936C101.475 120.805 100.078 119.613 98.7378 118.36C97.54 117.26 95.8189 115.134 94.4246 114.464C93.1829 113.867 79.5876 112.277 77.0326 111.929L57.9711 109.338C54.3952 108.85 50.823 108.334 47.2394 107.908C46.044 107.766 44.9487 108.049 44.4756 109.287C44.3557 109.599 44.3352 109.941 44.4168 110.265C44.8207 111.883 49.1887 114.189 50.7357 115.174L63.1002 123.075C69.7326 127.32 74.1537 129.546 77.4322 137.246C79.2484 141.34 80.4898 145.959 83.0553 149.667C86.4864 154.625 92.2604 157.911 97.1995 161.287L115.794 174.018C113.27 176.129 108.437 179.147 105.016 178.062C95.665 175.096 87.6117 168.449 79.384 163.308C78.5479 162.786 75.2131 161.985 74.0663 161.634C68.8471 160.039 63.9415 158.949 59.1552 156.161C55.3062 153.919 51.9417 150.94 49.2558 147.396C46.0873 143.199 43.9257 138.335 42.9366 133.178C42.7152 131.996 42.5174 129.413 42.1363 128.459C41.6496 127.243 40.0501 125.02 39.2485 123.828L34.1968 116.33C36.5094 112.911 38.9548 109.355 41.1691 105.887C55.2989 106.384 57.6932 98.8422 46.8198 89.9851C48.2362 85.6351 49.2694 79.8052 50.6155 75.2217C52.7176 73.8064 55.1309 72.5074 57.3145 71.1841C62.4222 68.0887 66.1723 65.3519 72.3338 64.8353Z" fill="white"/>
<path filter="url(#rough)" d="M92.9451 84.4823C93.6085 84.439 93.974 84.3965 94.5673 84.7105C96.3196 85.6376 98.0619 86.6854 99.7755 87.6836C103.145 89.6457 106.502 91.6294 109.846 93.6345C113.254 95.668 116.644 97.7298 120.016 99.8195C121.69 100.861 123.944 102.117 125.395 103.374C130.565 107.854 127.645 115.335 121.804 117.313C118.267 118.137 111.752 117.029 108.132 116.313C101.451 114.993 94.7863 112.197 89.8209 107.471C85.999 103.93 86.8444 103.396 89.5843 99.4125C91.413 96.7536 92.2554 92.717 91.8561 89.5099C91.7147 88.3668 91.3943 87.0676 91.5157 85.9516C91.5908 85.2623 92.4094 84.7675 92.9451 84.4823Z" fill="black"/>
<path filter="url(#rough)" d="M96.3021 90.6359C98.853 92.1107 101.398 93.599 103.934 95.1005C106.351 96.5235 108.273 97.2045 109.714 99.743C111.931 103.649 111.491 108.754 108.004 111.747C107.764 111.954 107.113 111.714 106.845 111.629C101.257 110.249 95.9992 107.704 91.9775 103.541C94.9966 99.6602 96.2032 95.5005 96.3021 90.6359Z" fill="white"/>
<path filter="url(#rough)" d="M115.16 101.88C118.835 104.075 128.533 108.453 121.125 113.031C118.88 113.649 115.278 113.123 112.903 112.801C115.329 108.755 115.646 106.496 115.16 101.88Z" fill="white"/>
<path filter="url(#rough)" d="M82.9511 76.5435C86.0237 76.7412 89.2464 78.8281 90.1376 81.8561C90.4492 82.9285 90.4743 84.0628 90.2139 85.1482C89.8247 86.826 88.3427 89.6864 87.5929 91.4128C86.7243 93.2763 86.0127 95.224 85.0317 97.0331C83.9414 99.0441 82.487 99.7544 80.3911 100.335C78.4176 100.533 76.6886 100.172 75.1271 98.86C73.7996 97.7497 72.9783 96.1533 72.8495 94.4324C72.6886 92.0767 74.4305 88.1135 75.1974 85.7893C76.6498 81.3877 77.2275 76.8878 82.9511 76.5435Z" fill="black"/>
<path filter="url(#rough)" d="M82.3997 80.85L82.5184 80.8431C84.0527 80.7677 86.4564 82.5041 86.0879 83.6342C85.3187 85.9913 81.949 94.5552 80.4271 95.8667C78.1844 96.7378 76.5938 95.0291 77.4031 92.7429C78.6765 89.1466 79.6659 85.3755 81.1386 81.8589C81.3039 81.4645 82.0475 81.0435 82.3997 80.85Z" fill="white"/>
<path filter="url(#rough)" d="M65.5245 133.428C66.2724 133.341 66.9291 133.29 67.5432 133.795C68.4112 134.51 76.9763 148.934 77.9611 150.787C78.2231 151.28 78.7004 152.152 78.6628 152.698C78.629 153.189 78.2369 153.788 77.857 154.085C76.6281 155.045 74.4443 154.567 72.9876 154.414C68.4589 154.042 63.1054 152.104 60.7197 147.989C59.3812 145.711 59.0236 142.993 59.7278 140.448C60.5747 137.471 62.8483 134.935 65.5245 133.428Z" fill="black"/>
<path filter="url(#rough)" d="M65.5733 138.731C66.0831 139.265 67.4997 141.723 67.9729 142.514C69.4758 145.052 70.9969 147.58 72.5361 150.098L70.6711 149.676C65.0306 148.271 61.1929 144.245 65.5733 138.731Z" fill="white"/>
<path filter="url(#rough)" d="M64.1873 74.2904C66.7853 74.1343 69.0819 75.0631 70.8278 76.9905C74.6766 81.2268 71.8789 86.2723 70.5606 90.9326C69.8827 93.3293 68.9856 97.6732 67.0499 99.2287C65.83 100.217 64.2518 100.656 62.6936 100.44C60.3713 100.117 58.2524 98.3146 57.9228 96.0206C57.6089 93.8364 58.4457 90.8553 58.8886 88.6938L58.4476 88.7126C57.2727 88.7569 56.5019 88.7425 55.5894 87.8918C54.7582 87.1168 54.7487 86.0266 55.5823 85.2703C56.7047 84.2522 58.1405 84.4255 59.5316 84.4473C60.0391 84.4375 60.5467 84.4336 61.0544 84.4355C62.7147 84.4497 63.7985 85.2135 63.6004 87.0024C63.3173 89.5579 62.4392 91.9947 62.1278 94.5567C61.9613 95.9268 63.5978 96.9103 64.5536 95.5759C65.3068 93.0413 68.9432 83.3653 68.4107 81.3536C68.1522 80.3971 67.5222 79.5822 66.6595 79.0883C63.1419 77.0502 60.5926 81.4995 57.5309 82.2884C57.0661 82.4061 56.5632 82.2812 56.1728 82.0275C55.2107 81.5119 54.5281 80.0265 55.4784 79.0709C57.0273 77.513 59.7479 75.866 61.745 74.8607C62.4285 74.5167 63.488 74.3819 64.1873 74.2904Z" fill="black"/>
<path filter="url(#rough)" d="M133.459 107.895C135.521 107.735 136.958 109.312 138.347 110.672C143.065 115.292 144.935 121.41 139.792 126.499C139.275 126.839 138.753 127.026 138.122 126.868C136.749 126.522 132.909 124.813 132.27 123.679C131.692 122.654 132.844 119.158 132.966 117.737C133.218 116.455 133.143 115.352 133.109 114.072C133.043 111.581 130.54 109.558 133.459 107.895Z" fill="black"/>
<path filter="url(#rough)" d="M137.492 116.461C138.87 118.247 138.784 120.208 137.884 122.154C137.447 121.978 137.117 121.896 136.799 121.556C136.775 121.173 137.382 116.914 137.492 116.461Z" fill="white"/>
<path filter="url(#rough)" d="M54.2942 122.753C57.8101 122.304 61.0262 124.775 61.4786 128.274C61.9309 131.773 59.4482 134.974 55.9326 135.426C52.415 135.877 49.1958 133.406 48.7434 129.905C48.2908 126.405 50.7763 123.202 54.2942 122.753Z" fill="black"/>
<path filter="url(#rough)" d="M54.8885 127.004C56.0275 126.883 57.0558 127.689 57.2038 128.819C57.3519 129.95 56.5657 130.991 55.4335 131.163C54.6778 131.279 53.9187 130.978 53.4494 130.377C52.9803 129.776 52.8747 128.97 53.1734 128.27C53.4721 127.57 54.1285 127.086 54.8885 127.004Z" fill="white"/>
<path filter="url(#rough)" d="M46.0372 118.523C47.169 118.232 48.3254 118.899 48.6366 120.02C48.9476 121.141 48.2985 122.303 47.1776 122.632C46.4349 122.85 45.6316 122.653 45.0767 122.115C44.5217 121.578 44.3015 120.783 44.5006 120.039C44.6997 119.294 45.2872 118.715 46.0372 118.523Z" fill="black"/>
<path filter="url(#rough)" d="M110.557 161.074C110.754 161.454 110.659 164.631 110.654 165.296L109.017 164.16L107.616 163.256C108.537 162.632 109.649 161.752 110.557 161.074Z" fill="white"/>
<path filter="url(#rough)" d="M101.821 156.08C101.913 156.081 102 156.128 102.087 156.156C102.199 157.074 102.142 158.494 102.134 159.457L100.629 158.424L99.1321 157.404L101.821 156.08Z" fill="white"/>
<path filter="url(#rough)" d="M118.166 167.056L118.27 167.182C118.191 168.077 117.929 169.227 117.747 170.133L116.487 169.281L115.309 168.47C116.259 168.016 117.221 167.524 118.166 167.056Z" fill="white"/>
<path filter="url(#rough)" d="M135.802 135.565L137.473 135.55C137.047 135.916 136.682 136.299 136.289 136.698C136.042 136.973 136.038 137.042 135.696 137.148C135.538 136.798 135.735 135.993 135.802 135.565Z" fill="white"/>
<rect filter="url(#rough)" x="3.5" y="3.5" width="172" height="235" stroke="black" stroke-width="7"/>
</svg>
