<svg width="182" height="241" viewBox="0 0 182 241" fill="none" xmlns="http://www.w3.org/2000/svg">
<path d="M44.4222 145.724C35.4251 150.898 26.9823 163.137 23.8854 168.61V215.876H156.885V187.517C151.409 156.072 136.023 125.988 129.014 114.876C116.105 116.07 99.8389 127.646 93.3193 133.285C74.5428 133.285 66.5889 126.32 64.959 122.837V118.359C69.1967 117.53 75.1296 116.07 64.959 116.866C54.7884 117.663 47.0301 136.436 44.4222 145.724ZM44.4222 145.724C47.682 146.387 54.495 148.012 55.6685 149.206C57.1354 150.699 55.1796 154.679 61.5362 164.132M85.4121 94.8763V103.376C81.8121 104.976 73.9121 111.043 70.4121 113.876V101.376C68.4121 97.7763 65.9121 86.543 64.9121 81.3763C64.5915 71.1174 67.1488 61.4751 73.2428 55.8763M85.4121 94.8763C82.2455 94.2096 75.6121 91.0763 74.4121 83.8763C73.2121 76.6763 73.1326 62.2096 73.2428 55.8763M85.4121 94.8763C91.4201 96.043 103.634 95.4763 104.424 83.8763M73.2428 55.8763C76.6531 52.7432 81.1711 50.8763 86.9121 50.8763C99.7121 50.8763 103.579 58.543 103.912 62.3763L104.424 83.8763M105.412 125.376L104.424 83.8763M104.424 83.8763H103.912M72.8854 57.5596C74.5521 52.7263 80.9854 43.4596 93.3854 45.0596C108.885 47.0596 119.885 55.5596 119.385 104.06C123.219 106.893 131.585 113.66 134.385 118.06M123.885 162.376C122.385 160.71 117.285 157.376 108.885 157.376C100.485 157.376 74.0521 172.043 61.8854 179.376M27.0354 24.8579C27.7354 24.8538 28.4354 24.848 29.1354 24.8405L31.2354 24.818C31.9354 24.8105 32.6354 24.7863 33.3354 24.7453L35.4354 24.6222C36.1354 24.5812 36.8354 24.5722 37.5354 24.5952L39.6354 24.6642C40.3354 24.6871 41.0354 24.7079 41.7354 24.7264L43.8354 24.7818C44.5354 24.8003 45.2354 24.8012 45.9354 24.7844L48.0354 24.7342C48.7354 24.7174 49.4354 24.7294 50.1354 24.7702L52.2354 24.8926C52.9354 24.9334 53.6354 24.9256 54.3354 24.869L56.4354 24.6993C57.1354 24.6428 57.8354 24.6299 58.5354 24.6607L60.6354 24.7531C61.3354 24.7838 62.0354 24.823 62.7354 24.8705L64.8354 25.013C65.5354 25.0605 66.2354 25.0925 66.9354 25.109L69.0354 25.1584C69.7354 25.1748 70.4354 25.1399 71.1354 25.0535L73.2354 24.7942C73.9354 24.7078 74.6354 24.6854 75.3354 24.7269L77.4354 24.8516C78.1354 24.8931 78.8354 24.9394 79.5354 24.9906L81.6354 25.1439C82.3354 25.1951 83.0354 25.2268 83.7354 25.2391L85.8354 25.276C86.5354 25.2883 87.2354 25.2329 87.9354 25.11L90.0354 24.7412C90.7354 24.6182 91.4354 24.5512 92.1354 24.54L94.2354 24.5065C94.9354 24.4954 95.6354 24.5562 96.3354 24.6889L98.4354 25.0872C99.1354 25.22 99.8355 25.2575 100.535 25.1997L102.635 25.0264C103.335 24.9687 104.035 24.9258 104.735 24.8977L106.835 24.8136C107.535 24.7856 108.235 24.8147 108.935 24.9011L111.035 25.1601C111.735 25.2464 112.435 25.2839 113.135 25.2723L115.235 25.2377C115.935 25.2261 116.635 25.1725 117.335 25.0767L119.435 24.7895C120.135 24.6938 120.835 24.6307 121.535 24.6004L123.635 24.5094C124.335 24.4791 125.035 24.5218 125.735 24.6375L127.835 24.9846C128.535 25.1003 129.235 25.1683 129.935 25.1887L132.035 25.2497C132.735 25.2701 133.435 25.2633 134.135 25.2295L136.235 25.1279C136.935 25.0941 137.635 25.0437 138.335 24.9769L140.435 24.7764C141.135 24.7096 141.835 24.6646 142.535 24.6415L144.635 24.5722C145.335 24.5491 146.035 24.5666 146.735 24.6246L148.835 24.7985C149.535 24.8565 150.235 24.883 150.935 24.878L153.035 24.863C153.735 24.858 154.309 24.9739 154.757 25.2107L156.1 25.9211C156.548 26.1579 156.758 26.6263 156.73 27.3263L156.647 29.4263C156.619 30.1263 156.607 30.8263 156.61 31.5263L156.619 33.6263C156.623 34.3263 156.655 35.0263 156.716 35.7263L156.9 37.8263C156.961 38.5263 156.952 39.2263 156.872 39.9263L156.633 42.0263C156.553 42.7263 156.561 43.4263 156.656 44.1263L156.942 46.2263C157.037 46.9263 157.092 47.6263 157.106 48.3263L157.15 50.4263C157.164 51.1263 157.12 51.8263 157.016 52.5263L156.704 54.6263C156.6 55.3263 156.596 56.0263 156.692 56.7263L156.981 58.8263C157.077 59.5263 157.129 60.2263 157.139 60.9263L157.166 63.0263C157.175 63.7263 157.162 64.4263 157.126 65.1263L157.019 67.2263C156.983 67.9263 156.929 68.6263 156.856 69.3263L156.636 71.4263C156.563 72.1263 156.554 72.8263 156.609 73.5263L156.775 75.6263C156.83 76.3263 156.873 77.0263 156.904 77.7263L156.999 79.8263C157.03 80.5263 157.016 81.2263 156.958 81.9263L156.782 84.0263C156.724 84.7263 156.696 85.4263 156.699 86.1263L156.708 88.2263C156.711 88.9263 156.749 89.6263 156.823 90.3263L157.044 92.4263C157.118 93.1263 157.137 93.8263 157.1 94.5263L156.99 96.6263C156.954 97.3263 156.94 98.0263 156.95 98.7263L156.978 100.826C156.988 101.526 157.011 102.226 157.047 102.926L157.156 105.026C157.192 105.726 157.15 106.426 157.029 107.126L156.668 109.226C156.547 109.926 156.548 110.626 156.669 111.326L157.034 113.426C157.156 114.126 157.164 114.826 157.059 115.526L156.744 117.626C156.639 118.326 156.637 119.026 156.737 119.726L157.038 121.826C157.139 122.526 157.155 123.226 157.089 123.926L156.888 126.026C156.822 126.726 156.809 127.426 156.849 128.126L156.972 130.226C157.013 130.926 157.037 131.626 157.045 132.326L157.068 134.426C157.076 135.126 157.086 135.826 157.099 136.526L157.138 138.626C157.151 139.326 157.135 140.026 157.089 140.726L156.953 142.826C156.908 143.526 156.883 144.226 156.879 144.926L156.867 147.026C156.863 147.726 156.87 148.426 156.889 149.126L156.945 151.226C156.963 151.926 156.964 152.626 156.948 153.326L156.899 155.426C156.883 156.126 156.895 156.826 156.936 157.526L157.06 159.626C157.102 160.326 157.09 161.026 157.027 161.726L156.835 163.826C156.772 164.526 156.757 165.226 156.791 165.926L156.894 168.026C156.929 168.726 156.929 169.426 156.895 170.126L156.793 172.226C156.759 172.926 156.742 173.626 156.744 174.326L156.747 176.426C156.748 177.126 156.761 177.826 156.787 178.526L156.864 180.626C156.89 181.326 156.905 182.026 156.908 182.726L156.918 184.826C156.922 185.526 156.895 186.226 156.838 186.926L156.668 189.026C156.611 189.726 156.616 190.426 156.682 191.126L156.883 193.226C156.95 193.926 156.987 194.626 156.994 195.326L157.015 197.426C157.022 198.126 157.012 198.826 156.985 199.526L156.905 201.626C156.878 202.326 156.861 203.026 156.853 203.726L156.83 205.826C156.823 206.526 156.818 207.226 156.817 207.926L156.814 210.026C156.813 210.726 156.796 211.426 156.761 212.126L156.657 214.226C156.623 214.926 156.412 215.39 156.025 215.618L154.865 216.302C154.479 216.53 153.935 216.677 153.235 216.742L151.135 216.937C150.435 217.003 149.735 217.024 149.035 217.003L146.935 216.938C146.235 216.917 145.535 216.93 144.835 216.977L142.735 217.121C142.035 217.168 141.335 217.155 140.635 217.08L138.535 216.855C137.835 216.78 137.135 216.744 136.435 216.747L134.335 216.755C133.635 216.758 132.935 216.77 132.235 216.793L130.135 216.861C129.435 216.884 128.735 216.928 128.035 216.994L125.935 217.193C125.235 217.259 124.535 217.273 123.835 217.235L121.735 217.121C121.035 217.083 120.335 217.047 119.635 217.012L117.535 216.906C116.835 216.871 116.135 216.886 115.435 216.951L113.335 217.147C112.635 217.212 111.935 217.205 111.235 217.126L109.135 216.888C108.435 216.809 107.735 216.769 107.035 216.769L104.935 216.769C104.235 216.769 103.535 216.812 102.835 216.897L100.735 217.155C100.035 217.241 99.3354 217.246 98.6354 217.169L96.5354 216.939C95.8354 216.862 95.1354 216.809 94.4354 216.778L92.3354 216.687C91.6354 216.657 90.9354 216.645 90.2354 216.652L88.1354 216.674C87.4354 216.681 86.7354 216.697 86.0354 216.723L83.9354 216.801C83.2354 216.827 82.5354 216.857 81.8354 216.89L79.7354 216.988C79.0354 217.021 78.3354 217.011 77.6354 216.956L75.5354 216.794C74.8354 216.739 74.1354 216.759 73.4354 216.852L71.3354 217.131C70.6354 217.224 69.9354 217.229 69.2354 217.147L67.1354 216.899C66.4354 216.817 65.7354 216.772 65.0354 216.765L62.9354 216.744C62.2354 216.738 61.5354 216.763 60.8354 216.82L58.7354 216.992C58.0354 217.05 57.3354 217.071 56.6354 217.057L54.5354 217.014C53.8354 216.999 53.1354 216.997 52.4354 217.008L50.3354 217.041C49.6354 217.052 48.9354 217.074 48.2354 217.107L46.1354 217.204C45.4354 217.236 44.7354 217.211 44.0354 217.128L41.9354 216.877C41.2354 216.794 40.5354 216.768 39.8354 216.801L37.7354 216.898C37.0354 216.93 36.3354 216.945 35.6354 216.944L33.5354 216.939C32.8354 216.938 32.1354 216.911 31.4354 216.858L29.3354 216.701C28.6354 216.649 27.9354 216.675 27.2354 216.779L25.1354 217.093C24.4354 217.198 24.0435 216.886 23.9597 216.157L23.7082 213.97C23.6244 213.241 23.6143 212.526 23.678 211.826L23.8691 209.726C23.9327 209.026 23.9262 208.326 23.8495 207.626L23.6194 205.526C23.5427 204.826 23.5684 204.126 23.6966 203.426L24.0813 201.326C24.2095 200.626 24.2449 199.926 24.1876 199.226L24.0156 197.126C23.9583 196.426 23.9267 195.726 23.9207 195.026L23.9028 192.926C23.8969 192.226 23.8923 191.526 23.8891 190.826L23.8796 188.726C23.8764 188.026 23.882 187.326 23.8965 186.626L23.9399 184.526C23.9543 183.826 23.9479 183.126 23.9206 182.426L23.8386 180.326C23.8112 179.626 23.775 178.926 23.7297 178.226L23.5941 176.126C23.5488 175.426 23.5227 174.726 23.5158 174.026L23.495 171.926C23.488 171.226 23.5344 170.526 23.6341 169.826L23.9332 167.726C24.033 167.026 24.0678 166.326 24.0378 165.626L23.9479 163.526C23.9179 162.826 23.8884 162.126 23.8593 161.426L23.7719 159.326C23.7428 158.626 23.7455 157.926 23.7799 157.226L23.8833 155.126C23.9178 154.426 23.9382 153.726 23.9446 153.026L23.9637 150.926C23.9701 150.226 23.9636 149.526 23.9442 148.826L23.8862 146.726C23.8668 146.026 23.8855 145.326 23.9421 144.626L24.1121 142.526C24.1687 141.826 24.163 141.126 24.0949 140.426L23.8905 138.326C23.8224 137.626 23.7962 136.926 23.8119 136.226L23.8589 134.126C23.8746 133.426 23.8867 132.726 23.8954 132.026L23.9213 129.926C23.93 129.226 23.9369 128.526 23.9421 127.826L23.9576 125.726C23.9628 125.026 23.9762 124.326 23.9978 123.626L24.0627 121.526C24.0843 120.826 24.0657 120.126 24.0068 119.426L23.8303 117.326C23.7714 116.626 23.7725 115.926 23.8334 115.226L24.0162 113.126C24.0772 112.426 24.117 111.726 24.1358 111.026L24.1921 108.926C24.2109 108.226 24.2208 107.526 24.222 106.826L24.2255 104.726C24.2266 104.026 24.1987 103.326 24.1416 102.626L23.9703 100.526C23.9132 99.8263 23.9058 99.1263 23.9479 98.4263L24.0742 96.3263C24.1164 95.6263 24.1138 94.9263 24.0666 94.2263L23.9251 92.1263C23.8779 91.4263 23.8915 90.7263 23.9659 90.0263L24.1892 87.9263C24.2636 87.2263 24.2496 86.5263 24.1471 85.8263L23.8398 83.7263C23.7373 83.0263 23.7177 82.3263 23.7809 81.6263L23.9705 79.5263C24.0337 78.8263 24.0518 78.1263 24.0249 77.4263L23.9439 75.3263C23.9169 74.6263 23.902 73.9263 23.8994 73.2263L23.8913 71.1263C23.8886 70.4263 23.9004 69.7263 23.9265 69.0263L24.0049 66.9263C24.0311 66.2263 24.0615 65.5263 24.0963 64.8263L24.2006 62.7263C24.2354 62.0263 24.217 61.3263 24.1456 60.6263L23.9314 58.5263C23.8599 57.8263 23.8574 57.1263 23.9238 56.4263L24.123 54.3263C24.1894 53.6263 24.2191 52.9263 24.2121 52.2263L24.1909 50.1263C24.1838 49.4263 24.1642 48.7263 24.1319 48.0263L24.035 45.9263C24.0027 45.2263 23.9996 44.5263 24.0256 43.8263L24.1038 41.7263C24.1298 41.0263 24.1079 40.3263 24.038 39.6263L23.8283 37.5263C23.7584 36.8263 23.7404 36.1263 23.7743 35.4263L23.8761 33.3263C23.91 32.6263 23.9503 31.9263 23.997 31.2263L24.1369 29.1263C24.1835 28.4263 24.194 27.8096 24.1683 27.2763L24.0912 25.6763C24.0655 25.143 24.0387 24.8763 24.0108 24.8763H23.9272C23.8994 24.8763 24.2354 24.8743 24.9354 24.8702L27.0354 24.8579ZM6.03544 2.85789C6.73544 2.8538 7.43544 2.84801 8.13544 2.84051L10.2354 2.81802C10.9354 2.81053 11.6354 2.78628 12.3354 2.74527L14.4354 2.62224C15.1354 2.58123 15.8354 2.57221 16.5354 2.5952L18.6354 2.66416C19.3354 2.68715 20.0354 2.70789 20.7354 2.72638L22.8354 2.78184C23.5354 2.80033 24.2354 2.8012 24.9354 2.78444L27.0354 2.73417C27.7354 2.71742 28.4354 2.72944 29.1354 2.77024L31.2354 2.89264C31.9354 2.93344 32.6354 2.92556 33.3354 2.86901L35.4354 2.69934C36.1354 2.64279 36.8354 2.6299 37.5354 2.66069L39.6354 2.75305C40.3354 2.78384 41.0354 2.82299 41.7354 2.8705L43.8354 3.01302C44.5354 3.06053 45.2354 3.09252 45.9354 3.10898L48.0354 3.15837C48.7354 3.17484 49.4354 3.13987 50.1354 3.05346L52.2354 2.79423C52.9354 2.70782 53.6354 2.68539 54.3354 2.72693L56.4354 2.85157C57.1354 2.89311 57.8354 2.93945 58.5354 2.99057L60.6354 3.14395C61.3354 3.19508 62.0354 3.22679 62.7354 3.23908L64.8354 3.27597C65.5354 3.28827 66.2354 3.23294 66.9354 3.10999L69.0354 2.74116C69.7354 2.61821 70.4354 2.55116 71.1354 2.54L73.2354 2.50653C73.9354 2.49538 74.6354 2.55618 75.3354 2.68894L77.4354 3.08722C78.1354 3.21998 78.8354 3.25748 79.5354 3.19972L81.6354 3.02644C82.3354 2.96867 83.0354 2.92577 83.7354 2.89774L85.8354 2.81362C86.5355 2.78559 87.2354 2.81474 87.9354 2.90108L90.0354 3.16011C90.7354 3.24645 91.4354 3.28385 92.1354 3.27231L94.2355 3.23768C94.9355 3.22614 95.6354 3.17249 96.3354 3.07675L98.4354 2.7895C99.1354 2.69376 99.8354 2.63072 100.535 2.6004L102.635 2.50944C103.335 2.47912 104.035 2.52181 104.735 2.6375L106.835 2.98458C107.535 3.10028 108.235 3.1683 108.935 3.18866L111.035 3.24972C111.735 3.27007 112.435 3.26333 113.135 3.22948L115.235 3.12792C115.935 3.09407 116.635 3.04373 117.335 2.9769L119.435 2.7764C120.135 2.70957 120.835 2.66461 121.535 2.64151L123.635 2.5722C124.335 2.5491 125.035 2.56655 125.735 2.62455L127.835 2.79855C128.535 2.85654 129.235 2.88304 129.935 2.87805L132.035 2.86305C132.735 2.85805 133.435 2.86679 134.135 2.88926L136.235 2.95667C136.935 2.97914 137.635 3.0042 138.335 3.03184L140.435 3.11476C141.135 3.1424 141.835 3.15468 142.535 3.15159L144.635 3.14234C145.335 3.13925 146.035 3.10705 146.735 3.04572L148.835 2.86174C149.535 2.80041 150.235 2.80966 150.935 2.88948L153.035 3.12895C153.735 3.20877 154.435 3.20104 155.135 3.10576L157.235 2.81991C157.935 2.72463 158.635 2.66975 159.335 2.65529L161.435 2.6119C162.135 2.59744 162.835 2.64218 163.535 2.74613L165.635 3.05797C166.335 3.16192 167.035 3.16581 167.735 3.06965L169.835 2.78117C170.535 2.68501 171.235 2.63237 171.935 2.62325L174.035 2.59588C174.735 2.58676 175.409 2.64005 176.055 2.75573L177.996 3.10279C178.642 3.21848 178.929 3.62633 178.856 4.32633L178.636 6.42633C178.563 7.12633 178.554 7.82633 178.609 8.52633L178.775 10.6263C178.83 11.3263 178.873 12.0263 178.904 12.7263L178.999 14.8263C179.03 15.5263 179.016 16.2263 178.958 16.9263L178.782 19.0263C178.724 19.7263 178.696 20.4263 178.699 21.1263L178.708 23.2263C178.711 23.9263 178.749 24.6263 178.823 25.3263L179.044 27.4263C179.118 28.1263 179.137 28.8263 179.1 29.5263L178.99 31.6263C178.954 32.3263 178.94 33.0263 178.95 33.7263L178.978 35.8263C178.988 36.5263 179.011 37.2263 179.047 37.9263L179.156 40.0263C179.192 40.7263 179.15 41.4263 179.029 42.1263L178.668 44.2263C178.547 44.9263 178.548 45.6263 178.669 46.3263L179.034 48.4263C179.156 49.1263 179.164 49.8263 179.059 50.5263L178.744 52.6263C178.639 53.3263 178.637 54.0263 178.737 54.7263L179.038 56.8263C179.139 57.5263 179.155 58.2263 179.089 58.9263L178.888 61.0263C178.822 61.7263 178.809 62.4263 178.849 63.1263L178.972 65.2263C179.013 65.9263 179.037 66.6263 179.045 67.3263L179.068 69.4263C179.076 70.1263 179.086 70.8263 179.099 71.5263L179.138 73.6263C179.151 74.3263 179.135 75.0263 179.089 75.7263L178.953 77.8263C178.908 78.5263 178.883 79.2263 178.879 79.9263L178.867 82.0263C178.863 82.7263 178.87 83.4263 178.889 84.1263L178.945 86.2263C178.963 86.9263 178.964 87.6263 178.948 88.3263L178.899 90.4263C178.883 91.1263 178.895 91.8263 178.936 92.5263L179.06 94.6263C179.102 95.3263 179.09 96.0263 179.027 96.7263L178.835 98.8263C178.772 99.5263 178.757 100.226 178.791 100.926L178.894 103.026C178.929 103.726 178.929 104.426 178.895 105.126L178.793 107.226C178.759 107.926 178.742 108.626 178.744 109.326L178.747 111.426C178.748 112.126 178.761 112.826 178.787 113.526L178.864 115.626C178.89 116.326 178.905 117.026 178.908 117.726L178.918 119.826C178.922 120.526 178.895 121.226 178.838 121.926L178.668 124.026C178.611 124.726 178.616 125.426 178.682 126.126L178.883 128.226C178.95 128.926 178.987 129.626 178.994 130.326L179.015 132.426C179.022 133.126 179.012 133.826 178.985 134.526L178.905 136.626C178.878 137.326 178.861 138.026 178.853 138.726L178.83 140.826C178.823 141.526 178.818 142.226 178.817 142.926L178.814 145.026C178.813 145.726 178.796 146.426 178.761 147.126L178.657 149.226C178.623 149.926 178.609 150.626 178.617 151.326L178.641 153.426C178.649 154.126 178.686 154.826 178.751 155.526L178.947 157.626C179.012 158.326 179.034 159.026 179.012 159.726L178.947 161.826C178.926 162.526 178.939 163.226 178.987 163.926L179.13 166.026C179.178 166.726 179.164 167.426 179.089 168.126L178.864 170.226C178.789 170.926 178.753 171.626 178.756 172.326L178.764 174.426C178.767 175.126 178.779 175.826 178.802 176.526L178.87 178.626C178.893 179.326 178.937 180.026 179.003 180.726L179.202 182.826C179.268 183.526 179.282 184.226 179.244 184.926L179.13 187.026C179.093 187.726 179.056 188.426 179.021 189.126L178.915 191.226C178.88 191.926 178.895 192.626 178.96 193.326L179.156 195.426C179.222 196.126 179.215 196.826 179.135 197.526L178.897 199.626C178.818 200.326 178.778 201.026 178.778 201.726L178.778 203.826C178.778 204.526 178.821 205.226 178.907 205.926L179.164 208.026C179.25 208.726 179.255 209.426 179.178 210.126L178.948 212.226C178.871 212.926 178.818 213.626 178.787 214.326L178.696 216.426C178.666 217.126 178.654 217.826 178.661 218.526L178.683 220.626C178.69 221.326 178.706 222.026 178.732 222.726L178.81 224.826C178.836 225.526 178.866 226.226 178.899 226.926L178.998 229.026C179.031 229.726 179.02 230.426 178.966 231.126L178.803 233.226C178.748 233.926 178.685 234.609 178.612 235.275L178.394 237.272C178.322 237.937 177.935 238.229 177.235 238.147L175.135 237.899C174.435 237.817 173.735 237.772 173.035 237.765L170.935 237.744C170.235 237.738 169.535 237.763 168.835 237.82L166.735 237.992C166.035 238.05 165.335 238.071 164.635 238.057L162.535 238.014C161.835 237.999 161.135 237.997 160.435 238.008L158.335 238.041C157.635 238.052 156.935 238.074 156.235 238.107L154.135 238.204C153.435 238.236 152.735 238.211 152.035 238.128L149.935 237.877C149.235 237.794 148.535 237.768 147.835 237.801L145.735 237.898C145.035 237.93 144.335 237.945 143.635 237.944L141.535 237.939C140.835 237.938 140.135 237.911 139.435 237.858L137.335 237.701C136.635 237.649 135.935 237.675 135.235 237.779L133.135 238.093C132.435 238.198 131.735 238.244 131.035 238.232L128.935 238.197C128.235 238.185 127.535 238.147 126.835 238.084L124.735 237.893C124.035 237.829 123.335 237.836 122.635 237.912L120.535 238.142C119.835 238.219 119.135 238.193 118.435 238.065L116.335 237.68C115.635 237.552 114.935 237.517 114.235 237.574L112.135 237.746C111.435 237.803 110.735 237.835 110.035 237.841L107.935 237.859C107.235 237.865 106.535 237.869 105.835 237.873L103.735 237.882C103.035 237.885 102.335 237.88 101.635 237.865L99.5354 237.822C98.8354 237.807 98.1354 237.814 97.4354 237.841L95.3354 237.923C94.6354 237.951 93.9354 237.987 93.2354 238.032L91.1354 238.168C90.4354 238.213 89.7354 238.239 89.0354 238.246L86.9354 238.267C86.2354 238.274 85.5354 238.227 84.8354 238.128L82.7354 237.829C82.0354 237.729 81.3354 237.694 80.6354 237.724L78.5354 237.814C77.8354 237.844 77.1354 237.873 76.4354 237.902L74.3354 237.99C73.6354 238.019 72.9354 238.016 72.2354 237.982L70.1354 237.878C69.4354 237.844 68.7354 237.824 68.0354 237.817L65.9354 237.798C65.2354 237.792 64.5354 237.798 63.8354 237.818L61.7354 237.876C61.0354 237.895 60.3354 237.876 59.6354 237.82L57.5354 237.65C56.8354 237.593 56.1354 237.599 55.4354 237.667L53.3354 237.871C52.6354 237.939 51.9354 237.966 51.2354 237.95L49.1354 237.903C48.4354 237.887 47.7354 237.875 47.0354 237.866L44.9354 237.84C44.2354 237.832 43.5354 237.825 42.8354 237.82L40.7354 237.804C40.0354 237.799 39.3354 237.786 38.6354 237.764L36.5354 237.699C35.8354 237.677 35.1354 237.696 34.4354 237.755L32.3354 237.931C31.6354 237.99 30.9354 237.989 30.2354 237.928L28.1354 237.746C27.4354 237.685 26.7354 237.645 26.0354 237.626L23.9354 237.57C23.2354 237.551 22.5354 237.541 21.8354 237.54L19.7354 237.536C19.0354 237.535 18.3354 237.563 17.6354 237.62L15.5354 237.791C14.8354 237.849 14.1354 237.856 13.4354 237.814L11.3354 237.688C10.6354 237.645 9.9354 237.648 9.2354 237.695L7.13541 237.837C6.43541 237.884 5.85336 237.822 5.38926 237.65L3.99696 237.134C3.53287 236.962 3.24959 236.526 3.14714 235.826L2.83977 233.726C2.73732 233.026 2.7177 232.326 2.78091 231.626L2.97053 229.526C3.03374 228.826 3.05185 228.126 3.02485 227.426L2.94388 225.326C2.91689 224.626 2.90205 223.926 2.89937 223.226L2.89133 221.126C2.88864 220.426 2.90037 219.726 2.92652 219.026L3.00494 216.926C3.03108 216.226 3.06154 215.526 3.09631 214.826L3.20061 212.726C3.23537 212.026 3.21705 211.326 3.14563 210.626L2.93136 208.526C2.85994 207.826 2.85744 207.126 2.92384 206.426L3.12305 204.326C3.18945 203.626 3.21912 202.926 3.21206 202.226L3.19088 200.126C3.18382 199.426 3.16415 198.726 3.13187 198.026L3.03501 195.926C3.00273 195.226 2.9996 194.526 3.02564 193.826L3.10376 191.726C3.1298 191.026 3.10787 190.326 3.03796 189.626L2.82826 187.526C2.75836 186.826 2.74038 186.126 2.77431 185.426L2.87611 183.326C2.91005 182.626 2.95034 181.926 2.99697 181.226L3.13689 179.126C3.18353 178.426 3.194 177.726 3.16829 177.026L3.09118 174.926C3.06548 174.226 3.00512 173.526 2.91009 172.826L2.62502 170.726C2.52999 170.026 2.52653 169.326 2.61463 168.626L2.87892 166.526C2.96702 165.826 2.99418 165.126 2.96041 164.426L2.85908 162.326C2.8253 161.626 2.81507 160.926 2.8284 160.226L2.86837 158.126C2.88169 157.426 2.88312 156.726 2.87266 156.026L2.84127 153.926C2.83081 153.226 2.8435 152.526 2.87934 151.826L2.98686 149.726C3.0227 149.026 3.05896 148.326 3.09565 147.626L3.2057 145.526C3.24239 144.826 3.24281 144.126 3.20697 143.426L3.09944 141.326C3.0636 140.626 2.99891 139.926 2.90536 139.226L2.62472 137.126C2.53118 136.426 2.54761 135.726 2.67402 135.026L3.05325 132.926C3.17966 132.226 3.20361 131.526 3.12509 130.826L2.88955 128.726C2.81104 128.026 2.76273 127.326 2.74464 126.626L2.69037 124.526C2.67228 123.826 2.70774 123.126 2.79676 122.426L3.06382 120.326C3.15284 119.626 3.15445 118.926 3.06866 118.226L2.81126 116.126C2.72546 115.426 2.69802 114.726 2.72892 114.026L2.82165 111.926C2.85255 111.226 2.88829 110.526 2.92884 109.826L3.05052 107.726C3.09108 107.026 3.07282 106.326 2.99574 105.626L2.7645 103.526C2.68742 102.826 2.69372 102.126 2.78339 101.426L3.0524 99.3263C3.14207 98.6263 3.1743 97.9263 3.14909 97.2263L3.07347 95.1263C3.04826 94.4263 3.00476 93.7263 2.94297 93.0263L2.75758 90.9263C2.69579 90.2263 2.67131 89.5263 2.68416 88.8263L2.72268 86.7263C2.73552 86.0263 2.78216 85.3263 2.86258 84.6263L3.10386 82.5263C3.18429 81.8263 3.18971 81.1263 3.12013 80.4263L2.91139 78.3263C2.84181 77.6263 2.8159 76.9263 2.83368 76.2263L2.88699 74.1263C2.90476 73.4263 2.90455 72.7263 2.88636 72.0263L2.83179 69.9263C2.8136 69.2263 2.83626 68.5263 2.89976 67.8263L3.09028 65.7263C3.15378 65.0263 3.19019 64.3263 3.19948 63.6263L3.22737 61.5263C3.23667 60.8263 3.18392 60.1263 3.06914 59.4263L2.72478 57.3263C2.61 56.6263 2.58858 55.9263 2.66052 55.2263L2.87635 53.1263C2.94829 52.4263 2.98341 51.7263 2.98171 51.0263L2.97662 48.9263C2.97493 48.2263 2.94733 47.5263 2.89383 46.8263L2.73334 44.7263C2.67984 44.0263 2.67532 43.3263 2.71978 42.6263L2.85317 40.5263C2.89763 39.8263 2.90251 39.1263 2.86779 38.4263L2.76366 36.3263C2.72894 35.6263 2.70163 34.9263 2.6817 34.2263L2.62193 32.1263C2.60201 31.4263 2.63375 30.7263 2.71714 30.0263L2.96734 27.9262C3.05074 27.2262 3.07164 26.5262 3.03006 25.8263L2.90532 23.7263C2.86374 23.0263 2.86811 22.3263 2.91845 21.6263L3.06945 19.5263C3.11979 18.8263 3.15245 18.1263 3.16743 17.4263L3.21238 15.3263C3.22736 14.6263 3.2018 13.9263 3.1357 13.2263L2.93741 11.1263C2.87131 10.4263 2.80823 9.72627 2.74817 9.02626L2.56797 6.92626C2.50791 6.22626 2.48765 5.62626 2.5072 5.12627L2.56585 3.6263C2.5854 3.12631 2.61936 2.87631 2.66774 2.87631H2.81287C2.86125 2.87631 3.23544 2.87427 3.93544 2.87017L6.03544 2.85789Z" stroke="black" stroke-width="5"/>
</svg>
