<svg width="181" height="240" viewBox="0 0 181 240" fill="none" xmlns="http://www.w3.org/2000/svg">
<path d="M85.3854 163.376H85.4854L86.9354 163.438C87.9021 163.479 88.6354 163.474 89.1354 163.423L90.6354 163.271C91.1354 163.221 91.6354 163.217 92.1354 163.261L93.6354 163.391C94.1354 163.435 94.6354 163.44 95.1354 163.408L96.6354 163.312C97.1354 163.28 97.6354 163.273 98.1354 163.291L99.6354 163.346C100.135 163.365 100.635 163.382 101.135 163.4L102.635 163.453C103.135 163.47 103.635 163.457 104.135 163.412L105.635 163.278C106.135 163.233 106.635 163.213 107.135 163.219L108.635 163.235C109.135 163.24 109.635 163.27 110.135 163.324L111.635 163.487C112.135 163.541 112.635 163.532 113.135 163.458L114.635 163.236C115.135 163.162 115.635 163.124 116.135 163.121L117.635 163.111C118.135 163.108 118.635 163.095 119.135 163.074L120.635 163.01C121.135 162.988 121.635 163.006 122.135 163.064L123.635 163.238C124.135 163.296 124.635 163.335 125.135 163.354L126.635 163.412C127.135 163.432 127.635 163.434 128.135 163.419L129.635 163.375C130.135 163.36 130.635 163.374 131.135 163.416L132.635 163.541C133.135 163.583 133.635 163.602 134.135 163.597L135.635 163.584C136.135 163.579 136.635 163.527 137.135 163.427L138.635 163.127C139.135 163.027 139.635 162.983 140.135 162.994L141.635 163.026C142.135 163.037 142.635 163.103 143.135 163.223L144.635 163.582C145.135 163.702 145.635 163.718 146.135 163.631L147.635 163.37C148.135 163.283 148.635 163.234 149.135 163.221L150.635 163.183C151.135 163.171 151.552 163.198 151.885 163.266L152.885 163.469C153.219 163.537 153.385 163.555 153.385 163.522V163.474L153.285 163.376H153.385M5.53544 2.35789C6.23544 2.3538 6.93544 2.34801 7.63544 2.34051L9.73544 2.31802C10.4354 2.31053 11.1354 2.28628 11.8354 2.24527L13.9354 2.12224C14.6354 2.08123 15.3354 2.07221 16.0354 2.0952L18.1354 2.16416C18.8354 2.18715 19.5354 2.20789 20.2354 2.22638L22.3354 2.28184C23.0354 2.30033 23.7354 2.3012 24.4354 2.28444L26.5354 2.23417C27.2354 2.21742 27.9354 2.22944 28.6354 2.27024L30.7354 2.39264C31.4354 2.43344 32.1354 2.42556 32.8354 2.36901L34.9354 2.19934C35.6354 2.14279 36.3354 2.1299 37.0354 2.16069L39.1354 2.25305C39.8354 2.28384 40.5354 2.32299 41.2354 2.3705L43.3354 2.51302C44.0354 2.56053 44.7354 2.59252 45.4354 2.60898L47.5354 2.65837C48.2354 2.67484 48.9354 2.63987 49.6354 2.55346L51.7354 2.29423C52.4354 2.20782 53.1354 2.18539 53.8354 2.22693L55.9354 2.35157C56.6354 2.39311 57.3354 2.43945 58.0354 2.49057L60.1354 2.64395C60.8354 2.69508 61.5354 2.72679 62.2354 2.73908L64.3354 2.77597C65.0354 2.78827 65.7354 2.73294 66.4354 2.60999L68.5354 2.24116C69.2354 2.11821 69.9354 2.05116 70.6354 2.04L72.7354 2.00653C73.4354 1.99538 74.1354 2.05618 74.8354 2.18894L76.9354 2.58722C77.6354 2.71998 78.3354 2.75748 79.0354 2.69972L81.1354 2.52644C81.8354 2.46867 82.5354 2.42577 83.2354 2.39774L85.3354 2.31362C86.0355 2.28559 86.7354 2.31474 87.4354 2.40108L89.5354 2.66011C90.2354 2.74645 90.9354 2.78385 91.6354 2.77231L93.7355 2.73768C94.4355 2.72614 95.1354 2.67249 95.8354 2.57675L97.9354 2.2895C98.6354 2.19376 99.3354 2.13072 100.035 2.1004L102.135 2.00944C102.835 1.97912 103.535 2.02181 104.235 2.1375L106.335 2.48458C107.035 2.60028 107.735 2.6683 108.435 2.68866L110.535 2.74972C111.235 2.77007 111.935 2.76333 112.635 2.72948L114.735 2.62792C115.435 2.59407 116.135 2.54373 116.835 2.4769L118.935 2.2764C119.635 2.20957 120.335 2.16461 121.035 2.14151L123.135 2.0722C123.835 2.0491 124.535 2.06655 125.235 2.12455L127.335 2.29855C128.035 2.35654 128.735 2.38304 129.435 2.37805L131.535 2.36305C132.235 2.35805 132.935 2.36679 133.635 2.38926L135.735 2.45667C136.435 2.47914 137.135 2.5042 137.835 2.53184L139.935 2.61476C140.635 2.6424 141.335 2.65468 142.035 2.65159L144.135 2.64234C144.835 2.63925 145.535 2.60705 146.235 2.54572L148.335 2.36174C149.035 2.30041 149.735 2.30966 150.435 2.38948L152.535 2.62895C153.235 2.70877 153.935 2.70104 154.635 2.60576L156.735 2.31991C157.435 2.22463 158.135 2.16975 158.835 2.15529L160.935 2.1119C161.635 2.09744 162.335 2.14218 163.035 2.24613L165.135 2.55797C165.835 2.66192 166.535 2.66581 167.235 2.56965L169.335 2.28117C170.035 2.18501 170.735 2.13237 171.435 2.12325L173.535 2.09588C174.235 2.08676 174.909 2.14005 175.555 2.25573L177.496 2.60279C178.142 2.71848 178.429 3.12633 178.356 3.82633L178.136 5.92633C178.063 6.62633 178.054 7.32633 178.109 8.02633L178.275 10.1263C178.33 10.8263 178.373 11.5263 178.404 12.2263L178.499 14.3263C178.53 15.0263 178.516 15.7263 178.458 16.4263L178.282 18.5263C178.224 19.2263 178.196 19.9263 178.199 20.6263L178.208 22.7263C178.211 23.4263 178.249 24.1263 178.323 24.8263L178.544 26.9263C178.618 27.6263 178.637 28.3263 178.6 29.0263L178.49 31.1263C178.454 31.8263 178.44 32.5263 178.45 33.2263L178.478 35.3263C178.488 36.0263 178.511 36.7263 178.547 37.4263L178.656 39.5263C178.692 40.2263 178.65 40.9263 178.529 41.6263L178.168 43.7263C178.047 44.4263 178.048 45.1263 178.169 45.8263L178.534 47.9263C178.656 48.6263 178.664 49.3263 178.559 50.0263L178.244 52.1263C178.139 52.8263 178.137 53.5263 178.237 54.2263L178.538 56.3263C178.639 57.0263 178.655 57.7263 178.589 58.4263L178.388 60.5263C178.322 61.2263 178.309 61.9263 178.349 62.6263L178.472 64.7263C178.513 65.4263 178.537 66.1263 178.545 66.8263L178.568 68.9263C178.576 69.6263 178.586 70.3263 178.599 71.0263L178.638 73.1263C178.651 73.8263 178.635 74.5263 178.589 75.2263L178.453 77.3263C178.408 78.0263 178.383 78.7263 178.379 79.4263L178.367 81.5263C178.363 82.2263 178.37 82.9263 178.389 83.6263L178.445 85.7263C178.463 86.4263 178.464 87.1263 178.448 87.8263L178.399 89.9263C178.383 90.6263 178.395 91.3263 178.436 92.0263L178.56 94.1263C178.602 94.8263 178.59 95.5263 178.527 96.2263L178.335 98.3263C178.272 99.0263 178.257 99.7263 178.291 100.426L178.394 102.526C178.429 103.226 178.429 103.926 178.395 104.626L178.293 106.726C178.259 107.426 178.242 108.126 178.244 108.826L178.247 110.926C178.248 111.626 178.261 112.326 178.287 113.026L178.364 115.126C178.39 115.826 178.405 116.526 178.408 117.226L178.418 119.326C178.422 120.026 178.395 120.726 178.338 121.426L178.168 123.526C178.111 124.226 178.116 124.926 178.182 125.626L178.383 127.726C178.45 128.426 178.487 129.126 178.494 129.826L178.515 131.926C178.522 132.626 178.512 133.326 178.485 134.026L178.405 136.126C178.378 136.826 178.361 137.526 178.353 138.226L178.33 140.326C178.323 141.026 178.318 141.726 178.317 142.426L178.314 144.526C178.313 145.226 178.296 145.926 178.261 146.626L178.157 148.726C178.123 149.426 178.109 150.126 178.117 150.826L178.141 152.926C178.149 153.626 178.186 154.326 178.251 155.026L178.447 157.126C178.512 157.826 178.534 158.526 178.512 159.226L178.447 161.326C178.426 162.026 178.439 162.726 178.487 163.426L178.63 165.526C178.678 166.226 178.664 166.926 178.589 167.626L178.364 169.726C178.289 170.426 178.253 171.126 178.256 171.826L178.264 173.926C178.267 174.626 178.279 175.326 178.302 176.026L178.37 178.126C178.393 178.826 178.437 179.526 178.503 180.226L178.702 182.326C178.768 183.026 178.782 183.726 178.744 184.426L178.63 186.526C178.593 187.226 178.556 187.926 178.521 188.626L178.415 190.726C178.38 191.426 178.395 192.126 178.46 192.826L178.656 194.926C178.722 195.626 178.715 196.326 178.635 197.026L178.397 199.126C178.318 199.826 178.278 200.526 178.278 201.226L178.278 203.326C178.278 204.026 178.321 204.726 178.407 205.426L178.664 207.526C178.75 208.226 178.755 208.926 178.678 209.626L178.448 211.726C178.371 212.426 178.318 213.126 178.287 213.826L178.196 215.926C178.166 216.626 178.154 217.326 178.161 218.026L178.183 220.126C178.19 220.826 178.206 221.526 178.232 222.226L178.31 224.326C178.336 225.026 178.366 225.726 178.399 226.426L178.498 228.526C178.531 229.226 178.52 229.926 178.466 230.626L178.303 232.726C178.248 233.426 178.185 234.109 178.112 234.775L177.894 236.772C177.822 237.437 177.435 237.729 176.735 237.647L174.635 237.399C173.935 237.317 173.235 237.272 172.535 237.265L170.435 237.244C169.735 237.238 169.035 237.263 168.335 237.32L166.235 237.492C165.535 237.55 164.835 237.571 164.135 237.557L162.035 237.514C161.335 237.499 160.635 237.497 159.935 237.508L157.835 237.541C157.135 237.552 156.435 237.574 155.735 237.607L153.635 237.704C152.935 237.736 152.235 237.711 151.535 237.628L149.435 237.377C148.735 237.294 148.035 237.268 147.335 237.301L145.235 237.398C144.535 237.43 143.835 237.445 143.135 237.444L141.035 237.439C140.335 237.438 139.635 237.411 138.935 237.358L136.835 237.201C136.135 237.149 135.435 237.175 134.735 237.279L132.635 237.593C131.935 237.698 131.235 237.744 130.535 237.732L128.435 237.697C127.735 237.685 127.035 237.647 126.335 237.584L124.235 237.393C123.535 237.329 122.835 237.336 122.135 237.412L120.035 237.642C119.335 237.719 118.635 237.693 117.935 237.565L115.835 237.18C115.135 237.052 114.435 237.017 113.735 237.074L111.635 237.246C110.935 237.303 110.235 237.335 109.535 237.341L107.435 237.359C106.735 237.365 106.035 237.369 105.335 237.373L103.235 237.382C102.535 237.385 101.835 237.38 101.135 237.365L99.0354 237.322C98.3354 237.307 97.6354 237.314 96.9354 237.341L94.8354 237.423C94.1354 237.451 93.4354 237.487 92.7354 237.532L90.6354 237.668C89.9354 237.713 89.2354 237.739 88.5354 237.746L86.4354 237.767C85.7354 237.774 85.0354 237.727 84.3354 237.628L82.2354 237.329C81.5354 237.229 80.8354 237.194 80.1354 237.224L78.0354 237.314C77.3354 237.344 76.6354 237.373 75.9354 237.402L73.8354 237.49C73.1354 237.519 72.4354 237.516 71.7354 237.482L69.6354 237.378C68.9354 237.344 68.2354 237.324 67.5354 237.317L65.4354 237.298C64.7354 237.292 64.0354 237.298 63.3354 237.318L61.2354 237.376C60.5354 237.395 59.8354 237.376 59.1354 237.32L57.0354 237.15C56.3354 237.093 55.6354 237.099 54.9354 237.167L52.8354 237.371C52.1354 237.439 51.4354 237.466 50.7354 237.45L48.6354 237.403C47.9354 237.387 47.2354 237.375 46.5354 237.366L44.4354 237.34C43.7354 237.332 43.0354 237.325 42.3354 237.32L40.2354 237.304C39.5354 237.299 38.8354 237.286 38.1354 237.264L36.0354 237.199C35.3354 237.177 34.6354 237.196 33.9354 237.255L31.8354 237.431C31.1354 237.49 30.4354 237.489 29.7354 237.428L27.6354 237.246C26.9354 237.185 26.2354 237.145 25.5354 237.126L23.4354 237.07C22.7354 237.051 22.0354 237.041 21.3354 237.04L19.2354 237.036C18.5354 237.035 17.8354 237.063 17.1354 237.12L15.0354 237.291C14.3354 237.349 13.6354 237.356 12.9354 237.314L10.8354 237.188C10.1354 237.145 9.4354 237.148 8.7354 237.195L6.63541 237.337C5.93541 237.384 5.35336 237.322 4.88926 237.15L3.49696 236.634C3.03287 236.462 2.74959 236.026 2.64714 235.326L2.33977 233.226C2.23732 232.526 2.2177 231.826 2.28091 231.126L2.47053 229.026C2.53374 228.326 2.55185 227.626 2.52485 226.926L2.44388 224.826C2.41689 224.126 2.40205 223.426 2.39937 222.726L2.39133 220.626C2.38864 219.926 2.40037 219.226 2.42652 218.526L2.50494 216.426C2.53108 215.726 2.56154 215.026 2.59631 214.326L2.70061 212.226C2.73537 211.526 2.71705 210.826 2.64563 210.126L2.43136 208.026C2.35994 207.326 2.35744 206.626 2.42384 205.926L2.62305 203.826C2.68945 203.126 2.71912 202.426 2.71206 201.726L2.69088 199.626C2.68382 198.926 2.66415 198.226 2.63187 197.526L2.53501 195.426C2.50273 194.726 2.4996 194.026 2.52564 193.326L2.60376 191.226C2.6298 190.526 2.60787 189.826 2.53796 189.126L2.32826 187.026C2.25836 186.326 2.24038 185.626 2.27431 184.926L2.37611 182.826C2.41005 182.126 2.45034 181.426 2.49697 180.726L2.63689 178.626C2.68353 177.926 2.694 177.226 2.66829 176.526L2.59118 174.426C2.56548 173.726 2.50512 173.026 2.41009 172.326L2.12502 170.226C2.02999 169.526 2.02653 168.826 2.11463 168.126L2.37892 166.026C2.46702 165.326 2.49418 164.626 2.46041 163.926L2.35908 161.826C2.3253 161.126 2.31507 160.426 2.3284 159.726L2.36837 157.626C2.38169 156.926 2.38312 156.226 2.37266 155.526L2.34127 153.426C2.33081 152.726 2.3435 152.026 2.37934 151.326L2.48686 149.226C2.5227 148.526 2.55896 147.826 2.59565 147.126L2.7057 145.026C2.74239 144.326 2.74281 143.626 2.70697 142.926L2.59944 140.826C2.5636 140.126 2.49891 139.426 2.40536 138.726L2.12472 136.626C2.03118 135.926 2.04761 135.226 2.17402 134.526L2.55325 132.426C2.67966 131.726 2.70361 131.026 2.62509 130.326L2.38955 128.226C2.31104 127.526 2.26273 126.826 2.24464 126.126L2.19037 124.026C2.17228 123.326 2.20774 122.626 2.29676 121.926L2.56382 119.826C2.65284 119.126 2.65445 118.426 2.56866 117.726L2.31126 115.626C2.22546 114.926 2.19802 114.226 2.22892 113.526L2.32165 111.426C2.35255 110.726 2.38829 110.026 2.42884 109.326L2.55052 107.226C2.59108 106.526 2.57282 105.826 2.49574 105.126L2.2645 103.026C2.18742 102.326 2.19372 101.626 2.28339 100.926L2.5524 98.8263C2.64207 98.1263 2.6743 97.4263 2.64909 96.7263L2.57347 94.6263C2.54826 93.9263 2.50476 93.2263 2.44297 92.5263L2.25758 90.4263C2.19579 89.7263 2.17131 89.0263 2.18416 88.3263L2.22268 86.2263C2.23552 85.5263 2.28216 84.8263 2.36258 84.1263L2.60386 82.0263C2.68429 81.3263 2.68971 80.6263 2.62013 79.9263L2.41139 77.8263C2.34181 77.1263 2.3159 76.4263 2.33368 75.7263L2.38699 73.6263C2.40476 72.9263 2.40455 72.2263 2.38636 71.5263L2.33179 69.4263C2.3136 68.7263 2.33626 68.0263 2.39976 67.3263L2.59028 65.2263C2.65378 64.5263 2.69019 63.8263 2.69948 63.1263L2.72737 61.0263C2.73667 60.3263 2.68392 59.6263 2.56914 58.9263L2.22478 56.8263C2.11 56.1263 2.08858 55.4263 2.16052 54.7263L2.37635 52.6263C2.44829 51.9263 2.48341 51.2263 2.48171 50.5263L2.47662 48.4263C2.47493 47.7263 2.44733 47.0263 2.39383 46.3263L2.23334 44.2263C2.17984 43.5263 2.17532 42.8263 2.21978 42.1263L2.35317 40.0263C2.39763 39.3263 2.40251 38.6263 2.36779 37.9263L2.26366 35.8263C2.22894 35.1263 2.20163 34.4263 2.1817 33.7263L2.12193 31.6263C2.10201 30.9263 2.13375 30.2263 2.21714 29.5263L2.46734 27.4262C2.55074 26.7262 2.57164 26.0262 2.53006 25.3263L2.40532 23.2263C2.36374 22.5263 2.36811 21.8263 2.41845 21.1263L2.56945 19.0263C2.61979 18.3263 2.65245 17.6263 2.66743 16.9263L2.71238 14.8263C2.72736 14.1263 2.7018 13.4263 2.6357 12.7263L2.43741 10.6263C2.37131 9.92627 2.30823 9.22627 2.24817 8.52626L2.06797 6.42626C2.00791 5.72626 1.98765 5.12626 2.0072 4.62627L2.06585 3.1263C2.0854 2.62631 2.11936 2.37631 2.16774 2.37631H2.31287C2.36125 2.37631 2.73544 2.37427 3.43544 2.37017L5.53544 2.35789ZM135.14 116.116C135.086 116.614 135.025 117.109 134.957 117.602L134.755 119.081C134.688 119.574 134.628 120.068 134.577 120.562L134.422 122.047C134.371 122.541 134.295 123.032 134.194 123.519L133.893 124.981C133.792 125.469 133.666 125.949 133.514 126.423L133.057 127.843C132.905 128.317 132.755 128.791 132.608 129.266L132.167 130.692C132.019 131.168 131.896 131.656 131.797 132.157L131.498 133.659C131.399 134.16 131.187 134.61 130.862 135.007L129.886 136.2C129.561 136.598 129.284 137.017 129.054 137.459L128.365 138.783C128.136 139.224 127.895 139.66 127.642 140.09L126.884 141.381C126.631 141.811 126.348 142.22 126.034 142.608L125.093 143.772C124.779 144.159 124.495 144.574 124.241 145.014L123.48 146.335C123.227 146.776 122.888 147.139 122.464 147.426L121.192 148.287C120.768 148.574 120.393 148.907 120.067 149.288L119.09 150.431C118.764 150.811 118.398 151.148 117.992 151.439L116.774 152.314C116.368 152.606 115.976 152.916 115.597 153.244L114.462 154.227C114.084 154.555 113.679 154.845 113.247 155.097L111.953 155.855C111.521 156.108 111.099 156.376 110.685 156.66L109.442 157.513C109.028 157.797 108.59 158.036 108.127 158.229L106.739 158.809C106.276 159.003 105.82 159.211 105.37 159.434L104.019 160.103C103.569 160.326 103.092 160.472 102.588 160.539L101.075 160.742C100.57 160.81 100.087 160.941 99.6243 161.137L98.2363 161.725C97.7736 161.921 97.2987 162.076 96.8116 162.192L95.3501 162.538C94.8629 162.654 94.3723 162.755 93.8782 162.842L92.3958 163.102C91.9017 163.189 91.4021 163.21 90.8971 163.166L89.3822 163.035C88.8772 162.992 88.376 163.016 87.8787 163.107L86.3869 163.383C85.8896 163.474 85.389 163.532 84.885 163.555L83.3731 163.626C82.8691 163.649 82.3665 163.636 81.8651 163.585L80.3612 163.434C79.8599 163.383 79.3636 163.302 78.8724 163.19L77.3989 162.854C76.9077 162.742 76.421 162.617 75.9388 162.48L74.4922 162.067C74.01 161.93 73.5315 161.783 73.0568 161.628L71.6327 161.161C71.158 161.006 70.6718 160.881 70.174 160.786L68.6808 160.502C68.183 160.407 67.7014 160.264 67.2358 160.073L65.8392 159.499C65.3737 159.308 64.9359 159.062 64.5258 158.762L63.2956 157.861C62.8856 157.561 62.4737 157.272 62.0599 156.994L60.8187 156.161C60.405 155.883 59.9867 155.614 59.564 155.353L58.2958 154.57C57.8731 154.31 57.4596 154.034 57.0554 153.745L55.8427 152.876C55.4385 152.586 55.0141 152.316 54.5695 152.067L53.2357 151.319C52.7911 151.07 52.4221 150.737 52.1288 150.319L51.249 149.067C50.9557 148.65 50.6354 148.263 50.2882 147.906L49.2467 146.835C48.8995 146.478 48.5549 146.117 48.213 145.752L47.1873 144.657C46.8454 144.292 46.5556 143.888 46.3181 143.445L45.6053 142.116C45.3677 141.674 45.1109 141.246 44.8349 140.833L44.0068 139.595C43.7308 139.183 43.4324 138.78 43.1115 138.387L42.1489 137.208C41.828 136.815 41.5594 136.392 41.343 135.939L40.6938 134.579C40.4774 134.126 40.2637 133.671 40.0525 133.214L39.4189 131.843C39.2077 131.385 39.0781 130.901 39.0299 130.39L38.8854 128.857C38.8372 128.346 38.7354 127.853 38.5801 127.38L38.1141 125.961C37.9587 125.488 37.7979 125.013 37.6315 124.537L37.1326 123.107C36.9662 122.631 36.8564 122.143 36.8029 121.643L36.6426 120.145C36.5892 119.646 36.5824 119.144 36.6221 118.641L36.7413 117.129C36.781 116.625 36.7958 116.125 36.7856 115.628L36.7552 114.138C36.745 113.641 36.7307 113.143 36.7122 112.644L36.6566 111.148C36.638 110.649 36.6616 110.152 36.7273 109.658L36.9243 108.176C36.99 107.682 37.0673 107.19 37.1561 106.7L37.4224 105.232C37.5112 104.743 37.6131 104.257 37.728 103.773L38.0726 102.324C38.1875 101.84 38.2849 101.351 38.3648 100.854L38.6045 99.3658C38.6844 98.8696 38.8159 98.3887 38.9989 97.923L39.5479 96.5261C39.7308 96.0604 39.9171 95.5964 40.1067 95.1339L40.6753 93.7466C40.8649 93.2842 41.0609 92.8237 41.2633 92.3651L41.8708 90.9895C42.0732 90.5309 42.3007 90.085 42.5533 89.6517L43.3111 88.3518C43.5636 87.9186 43.8655 87.5192 44.2167 87.1537L45.2701 86.0573C45.6213 85.6918 45.9155 85.2864 46.1527 84.841L46.8642 83.5048C47.1014 83.0594 47.3745 82.639 47.6837 82.2436L48.6111 81.0575C48.9203 80.6621 49.241 80.2755 49.5734 79.8975L50.5704 78.7635C50.9028 78.3855 51.2651 78.0385 51.6573 77.7227L52.8339 76.7752C53.2261 76.4593 53.6333 76.1648 54.0554 75.8916L55.3219 75.0721C55.7441 74.7989 56.1312 74.4779 56.4832 74.1089L57.5394 73.0021C57.8914 72.6332 58.3065 72.3584 58.7845 72.1776L60.2185 71.6354C60.6965 71.4547 61.1319 71.202 61.5249 70.8772L62.7037 69.903C63.0967 69.5783 63.5379 69.3475 64.0273 69.2106L65.4956 68.7999C65.985 68.6631 66.464 68.5096 66.9324 68.3397L68.3377 67.8298C68.8062 67.6599 69.2733 67.4861 69.739 67.3084L71.1364 66.7753C71.6022 66.5976 72.0759 66.4437 72.5575 66.3136L74.0024 65.9232C74.484 65.7931 74.9693 65.6779 75.4584 65.5776L76.9255 65.2766C77.4145 65.1763 77.9055 65.0834 78.3985 64.998L79.8776 64.7418C80.3706 64.6564 80.8658 64.5786 81.3632 64.5082L82.8553 64.2973C83.3527 64.227 83.8525 64.2191 84.3546 64.2738L85.8608 64.4379C86.3629 64.4926 86.8648 64.5072 87.3664 64.4817L88.8715 64.4052C89.3732 64.3797 89.8711 64.4097 90.3652 64.4951L91.8476 64.7515C92.3417 64.8369 92.8374 64.9087 93.3345 64.9668L94.826 65.1411C95.3232 65.1992 95.8061 65.3215 96.2747 65.508L97.6806 66.0677C98.1492 66.2543 98.6326 66.3842 99.1307 66.4576L100.625 66.6775C101.123 66.7508 101.594 66.9071 102.037 67.1463L103.367 67.8639C103.81 68.1031 104.268 68.303 104.741 68.4635L106.157 68.945C106.63 69.1055 107.104 69.2705 107.579 69.44L109.004 69.9487C109.479 70.1183 109.908 70.3703 110.291 70.7047L111.44 71.7081C111.823 72.0426 112.218 72.353 112.623 72.6393L113.84 73.4984C114.245 73.7847 114.681 74.0344 115.147 74.2475L116.543 74.8868C117.009 75.0999 117.4 75.4048 117.719 75.8016L118.673 76.9919C118.991 77.3886 119.366 77.7239 119.798 77.9977L121.093 78.819C121.525 79.0928 121.89 79.4335 122.188 79.8412L123.081 81.0644C123.378 81.4721 123.662 81.8876 123.931 82.3109L124.74 83.5809C125.009 84.0042 125.324 84.3942 125.684 84.7509L126.766 85.8211C127.126 86.1778 127.415 86.5836 127.631 87.0384L128.28 88.403C128.496 88.8579 128.744 89.2941 129.023 89.7117L129.861 90.9645C130.14 91.3821 130.389 91.8167 130.608 92.2683L131.266 93.6231C131.486 94.0747 131.684 94.5352 131.862 95.0046L132.395 96.4128C132.573 96.8821 132.754 97.3512 132.937 97.8199L133.489 99.2259C133.673 99.6946 133.769 100.186 133.779 100.7L133.809 102.241C133.819 102.754 133.909 103.249 134.079 103.724L134.59 105.149C134.76 105.624 134.853 106.113 134.869 106.615L134.916 108.121C134.932 108.623 134.955 109.122 134.985 109.618L135.076 111.108C135.106 111.605 135.17 112.022 135.267 112.359L135.56 113.371C135.658 113.708 135.68 113.876 135.626 113.876H135.466C135.412 113.876 135.358 114.125 135.304 114.623L135.14 116.116ZM86.2584 88.4917C86.2302 88.7396 86.1845 88.9832 86.1213 89.2227L85.9318 89.941C85.8687 90.1805 85.8211 90.4264 85.789 90.6788L85.6928 91.4359C85.6607 91.6883 85.5735 91.919 85.4311 92.1281L85.004 92.7553C84.8616 92.9643 84.7211 93.1715 84.5823 93.3768L84.1659 93.9927C84.0272 94.198 83.8913 94.4081 83.7583 94.6231L83.3595 95.2679C83.2265 95.4828 83.0701 95.6792 82.8903 95.857L82.3508 96.3905C82.171 96.5684 81.9683 96.7154 81.7428 96.8317L81.0661 97.1807C80.8405 97.297 80.6208 97.4195 80.407 97.548L79.7656 97.9337C79.5518 98.0622 79.3257 98.1633 79.0873 98.237L78.3721 98.4579C78.1337 98.5316 77.8967 98.608 77.6612 98.6871L76.9545 98.9245C76.719 99.0037 76.4789 99.0698 76.2342 99.123L75.5002 99.2826C75.2555 99.3358 75.0081 99.3485 74.7581 99.3208L74.008 99.2374C73.758 99.2097 73.5061 99.2169 73.2521 99.2591L72.4903 99.3858C72.2364 99.428 71.9921 99.3971 71.7574 99.2931L71.0534 98.9809C70.8188 98.8769 70.5794 98.7988 70.3354 98.7466L69.6033 98.5902C69.3593 98.5381 69.1231 98.4614 68.8947 98.3601L68.2095 98.0563C67.9811 97.955 67.7594 97.8404 67.5443 97.7126L66.8992 97.329C66.6842 97.2012 66.4717 97.0674 66.2617 96.9277L65.6318 96.5085C65.4219 96.3688 65.245 96.1942 65.1012 95.9847L64.6698 95.3562C64.526 95.1467 64.3695 94.9506 64.2002 94.7677L63.6926 94.219C63.5234 94.0361 63.3606 93.8448 63.2041 93.6451L62.7347 93.046C62.5782 92.8463 62.4526 92.629 62.3578 92.394L62.0735 91.6891C61.9787 91.4542 61.9113 91.2119 61.8711 90.9623L61.7508 90.2135C61.7106 89.9639 61.6797 89.7154 61.6579 89.468L61.5926 88.7258C61.5708 88.4784 61.5491 88.2308 61.5274 87.9829L61.4624 87.2393C61.4408 86.9914 61.4568 86.7459 61.5104 86.5029L61.6714 85.774C61.7251 85.531 61.7544 85.2819 61.7594 85.0267L61.7745 84.2612C61.7796 84.006 61.8466 83.7693 61.9755 83.551L62.3624 82.8961C62.4913 82.6778 62.6039 82.4531 62.7001 82.222L62.9886 81.5287C63.0848 81.2976 63.1961 81.0722 63.3225 80.8525L63.7016 80.1934C63.828 79.9737 63.991 79.7849 64.1906 79.6271L64.7892 79.1536C64.9888 78.9958 65.1749 78.825 65.3475 78.6411L65.8654 78.0894C66.0381 77.9056 66.2342 77.7519 66.4539 77.6285L67.1128 77.2584C67.3324 77.135 67.5508 77.0096 67.7678 76.882L68.4188 76.4995C68.6358 76.372 68.8646 76.2712 69.1052 76.1969L69.827 75.9742C70.0675 75.8999 70.3118 75.8453 70.5597 75.8104L71.3035 75.7056C71.5514 75.6707 71.7983 75.6324 72.0442 75.5908L72.7818 75.4658C73.0277 75.4242 73.2752 75.4095 73.5245 75.4217L74.2722 75.4584C74.5214 75.4706 74.7694 75.4908 75.0162 75.519L75.7567 75.6034C76.0036 75.6316 76.252 75.66 76.5022 75.6886L77.2526 75.7745C77.5027 75.8031 77.7487 75.8544 77.9907 75.9284L78.7167 76.1504C78.9587 76.2244 79.1905 76.3224 79.4122 76.4443L80.0773 76.81C80.299 76.9319 80.5061 77.0746 80.6985 77.2378L81.2758 77.7277C81.4682 77.891 81.6547 78.0579 81.8352 78.2285L82.3767 78.7402C82.5572 78.9108 82.7334 79.0852 82.9053 79.2635L83.4209 79.7985C83.5928 79.9768 83.7652 80.1578 83.9381 80.3417L84.4567 80.8931C84.6295 81.0769 84.7756 81.2799 84.895 81.5021L85.2529 82.1686C85.3722 82.3907 85.462 82.6242 85.5223 82.869L85.7033 83.6033C85.7636 83.8481 85.8244 84.0908 85.8855 84.3316L86.069 85.0538C86.1301 85.2945 86.1774 85.5384 86.2108 85.7853L86.3108 86.526C86.3442 86.7729 86.3629 86.9363 86.367 87.0163L86.3793 87.2563C86.3834 87.3363 86.3713 87.5002 86.3431 87.7481L86.2584 88.4917ZM115.202 90.4844C115.161 90.7306 115.132 90.9787 115.115 91.2286L115.063 91.9784C115.046 92.2283 114.991 92.4695 114.899 92.702L114.621 93.3995C114.529 93.632 114.434 93.8632 114.336 94.0932L114.042 94.7831C113.944 95.0131 113.819 95.2272 113.666 95.4254L113.209 96.0201C113.056 96.2183 112.894 96.4067 112.723 96.5852L112.208 97.1207C112.036 97.2992 111.871 97.4867 111.714 97.6831L111.243 98.2723C111.086 98.4687 110.896 98.6249 110.673 98.741L110.004 99.0893C109.781 99.2054 109.562 99.3239 109.347 99.4446L108.701 99.8067C108.486 99.9275 108.265 100.035 108.037 100.131L107.353 100.416C107.125 100.511 106.895 100.604 106.662 100.695L105.963 100.968C105.731 101.059 105.491 101.132 105.246 101.187L104.509 101.354C104.263 101.409 104.014 101.436 103.762 101.434L103.007 101.427C102.755 101.425 102.503 101.419 102.252 101.409L101.498 101.38C101.246 101.37 101.002 101.32 100.766 101.23L100.056 100.96C99.8195 100.871 99.5786 100.801 99.3332 100.752L98.5972 100.606C98.3518 100.557 98.118 100.476 97.8956 100.363L97.2285 100.022C97.0061 99.9081 96.7845 99.7926 96.5636 99.6753L95.901 99.3233C95.6802 99.2059 95.4683 99.0732 95.2654 98.9252L94.6566 98.4811C94.4536 98.3331 94.2721 98.1623 94.1119 97.9688L93.6312 97.3881C93.471 97.1946 93.3211 96.9952 93.1816 96.7899L92.7628 96.1741C92.6233 95.9689 92.4918 95.7596 92.3685 95.5462L91.9986 94.906C91.8753 94.6926 91.7396 94.4819 91.5915 94.2741L91.1473 93.6506C90.9992 93.4428 90.8989 93.2154 90.8463 92.9684L90.6883 92.2273C90.6357 91.9803 90.5905 91.7329 90.5527 91.4851L90.4395 90.7415C90.4017 90.4937 90.3971 90.245 90.4257 89.9955L90.5115 89.2471C90.54 88.9976 90.5682 88.7504 90.5959 88.5056L90.6791 87.7712C90.7068 87.5264 90.7432 87.2823 90.7884 87.039L90.9238 86.309C90.9689 86.0656 91.0343 85.8274 91.1199 85.5942L91.3766 84.8949C91.4622 84.6617 91.5635 84.4355 91.6806 84.2161L92.032 83.558C92.1491 83.3386 92.2736 83.1225 92.4056 82.9097L92.8014 82.2712C92.9333 82.0584 93.0834 81.8588 93.2516 81.6723L93.7562 81.113C93.9244 80.9265 94.1113 80.7614 94.317 80.6178L94.934 80.1867C95.1396 80.043 95.3383 79.8892 95.53 79.7252L96.105 79.2331C96.2966 79.0691 96.5107 78.9435 96.7471 78.8563L97.4563 78.5946C97.6928 78.5073 97.9225 78.403 98.1457 78.2815L98.8152 77.9171C99.0384 77.7956 99.2784 77.7357 99.5353 77.7376L100.306 77.743C100.563 77.7448 100.813 77.7182 101.056 77.663L101.786 77.4974C102.03 77.4422 102.277 77.3968 102.529 77.3612L103.284 77.2542C103.536 77.2185 103.786 77.2248 104.035 77.2731L104.781 77.4181C105.03 77.4664 105.27 77.5419 105.501 77.6444L106.195 77.9522C106.426 78.0547 106.661 78.139 106.9 78.2049L107.617 78.4026C107.856 78.4685 108.09 78.5525 108.317 78.6548L108.998 78.9615C109.225 79.0637 109.453 79.1707 109.681 79.2825L110.364 79.6178C110.592 79.7296 110.78 79.8901 110.93 80.0992L111.38 80.7266C111.53 80.9357 111.691 81.1282 111.864 81.304L112.383 81.8315C112.556 82.0074 112.724 82.1901 112.885 82.3797L113.371 82.9485C113.532 83.1381 113.671 83.3436 113.785 83.565L114.13 84.2293C114.244 84.4508 114.361 84.6731 114.481 84.8962L114.841 85.5656C114.96 85.7887 115.044 86.0244 115.092 86.2727L115.234 87.0175C115.282 87.2658 115.299 87.5159 115.287 87.7679L115.248 88.5238C115.236 88.7757 115.242 88.9413 115.268 89.0204L115.346 89.2577C115.372 89.3368 115.365 89.4994 115.324 89.7457L115.202 90.4844ZM127.351 117.003C127.343 117.253 127.32 117.502 127.282 117.75L127.169 118.495C127.131 118.743 127.084 118.99 127.029 119.237L126.861 119.976C126.806 120.223 126.712 120.454 126.579 120.671L126.183 121.32C126.05 121.537 125.934 121.761 125.835 121.994L125.537 122.691C125.438 122.923 125.316 123.143 125.171 123.351L124.737 123.974C124.592 124.182 124.41 124.354 124.191 124.491L123.535 124.9C123.317 125.037 123.129 125.206 122.971 125.408L122.498 126.013C122.34 126.215 122.151 126.377 121.931 126.5L121.268 126.869C121.048 126.992 120.821 127.1 120.588 127.194L119.889 127.475C119.656 127.568 119.417 127.642 119.174 127.695L118.443 127.856C118.199 127.91 117.956 127.96 117.713 128.007L116.983 128.147C116.74 128.194 116.494 128.228 116.246 128.249L115.502 128.314C115.254 128.336 115.008 128.322 114.764 128.274L114.031 128.13C113.787 128.082 113.544 128.035 113.303 127.987L112.578 127.845C112.336 127.797 112.089 127.756 111.836 127.72L111.078 127.613C110.826 127.577 110.591 127.494 110.374 127.365L109.723 126.977C109.506 126.847 109.292 126.714 109.082 126.576L108.45 126.163C108.239 126.026 108.04 125.874 107.851 125.707L107.285 125.206C107.097 125.039 106.919 124.862 106.752 124.674L106.25 124.109C106.082 123.921 105.938 123.716 105.817 123.495L105.455 122.833C105.334 122.613 105.208 122.396 105.077 122.183L104.682 121.543C104.551 121.33 104.433 121.109 104.329 120.879L104.018 120.19C103.914 119.961 103.855 119.719 103.841 119.465L103.797 118.703C103.782 118.449 103.739 118.201 103.667 117.96L103.45 117.235C103.378 116.993 103.341 116.747 103.337 116.495L103.327 115.74C103.323 115.489 103.353 115.241 103.416 114.997L103.606 114.265C103.669 114.021 103.714 113.775 103.74 113.526L103.818 112.781C103.844 112.533 103.897 112.29 103.978 112.054L104.22 111.345C104.3 111.109 104.391 110.876 104.492 110.647L104.795 109.959C104.896 109.73 105.022 109.516 105.174 109.317L105.63 108.72C105.782 108.521 105.931 108.32 106.077 108.118L106.515 107.511C106.661 107.308 106.82 107.116 106.993 106.934L107.511 106.387C107.683 106.205 107.874 106.044 108.083 105.905L108.71 105.488C108.919 105.349 109.134 105.222 109.355 105.107L110.019 104.761C110.24 104.646 110.466 104.544 110.698 104.454L111.393 104.186C111.625 104.096 111.86 104.016 112.098 103.945L112.813 103.732C113.051 103.661 113.294 103.618 113.542 103.604L114.287 103.56C114.535 103.546 114.783 103.533 115.031 103.523L115.774 103.494C116.022 103.484 116.267 103.504 116.51 103.552L117.238 103.699C117.481 103.747 117.724 103.794 117.968 103.838L118.7 103.971C118.944 104.016 119.178 104.091 119.402 104.198L120.074 104.519C120.298 104.625 120.517 104.739 120.732 104.86L121.378 105.224C121.593 105.345 121.815 105.461 122.044 105.573L122.73 105.908C122.959 106.02 123.155 106.172 123.318 106.365L123.808 106.943C123.972 107.136 124.128 107.333 124.277 107.532L124.726 108.132C124.875 108.332 125.021 108.534 125.164 108.739L125.592 109.353C125.734 109.557 125.86 109.773 125.968 109.998L126.292 110.675C126.4 110.9 126.479 111.136 126.527 111.381L126.673 112.117C126.722 112.363 126.778 112.605 126.841 112.844L127.03 113.562C127.093 113.801 127.141 114.043 127.172 114.29L127.267 115.028C127.299 115.275 127.32 115.438 127.332 115.517L127.368 115.757C127.38 115.836 127.382 116.001 127.374 116.252L127.351 117.003ZM110.374 141.507C110.371 141.758 110.35 142.008 110.31 142.257L110.19 143.004C110.15 143.253 110.07 143.49 109.951 143.713L109.592 144.384C109.472 144.608 109.372 144.838 109.29 145.075L109.044 145.787C108.962 146.024 108.86 146.254 108.738 146.475L108.372 147.141C108.249 147.362 108.098 147.562 107.918 147.74L107.378 148.273C107.198 148.451 107.008 148.616 106.81 148.769L106.213 149.225C106.015 149.378 105.819 149.533 105.627 149.693L105.05 150.17C104.858 150.33 104.646 150.457 104.416 150.553L103.723 150.841C103.492 150.936 103.267 151.043 103.046 151.16L102.385 151.51C102.164 151.627 101.934 151.718 101.693 151.785L100.971 151.985C100.731 152.052 100.486 152.101 100.239 152.131L99.4958 152.223C99.2481 152.254 99 152.268 98.7512 152.264L98.0051 152.255C97.7563 152.252 97.5079 152.246 97.2597 152.238L96.5151 152.214C96.2669 152.205 96.0169 152.193 95.7652 152.175L95.01 152.122C94.7583 152.104 94.5211 152.034 94.2983 151.911L93.6302 151.543C93.4074 151.421 93.1816 151.313 92.9526 151.219L92.2657 150.939C92.0367 150.846 91.8073 150.748 91.5775 150.646L90.888 150.339C90.6582 150.237 90.4531 150.098 90.2726 149.923L89.7313 149.399C89.5509 149.224 89.371 149.051 89.1916 148.878L88.6535 148.362C88.4741 148.19 88.3033 148.009 88.141 147.819L87.654 147.249C87.4917 147.059 87.3498 146.855 87.2282 146.636L86.8636 145.981C86.7421 145.763 86.6164 145.545 86.4867 145.327L86.0974 144.674C85.9677 144.456 85.8891 144.22 85.8617 143.967L85.7794 143.208C85.752 142.955 85.6989 142.708 85.6203 142.466L85.3844 141.742C85.3058 141.5 85.2873 141.254 85.3289 141.003L85.4537 140.248C85.4953 139.997 85.5102 139.745 85.4983 139.492L85.4626 138.735C85.4507 138.482 85.4903 138.238 85.5813 138.003L85.8546 137.297C85.9457 137.062 86.0253 136.823 86.0935 136.582L86.2981 135.859C86.3663 135.618 86.4745 135.396 86.6225 135.193L87.0667 134.584C87.2148 134.381 87.3557 134.175 87.4896 133.967L87.8911 133.341C88.0249 133.132 88.1811 132.941 88.3597 132.769L88.8955 132.253C89.0742 132.081 89.2401 131.892 89.3933 131.686L89.853 131.067C90.0062 130.861 90.1928 130.695 90.4129 130.57L91.0731 130.194C91.2932 130.068 91.5161 129.95 91.7417 129.839L92.4188 129.505C92.6445 129.394 92.8732 129.288 93.105 129.186L93.8005 128.881C94.0323 128.78 94.2717 128.7 94.5186 128.644L95.2592 128.473C95.5061 128.416 95.7556 128.377 96.0078 128.355L96.7642 128.288C97.0163 128.266 97.2682 128.264 97.5198 128.284L98.2746 128.343C98.5262 128.363 98.7733 128.405 99.0159 128.469L99.7436 128.661C99.9861 128.726 100.229 128.781 100.471 128.828L101.198 128.968C101.441 129.015 101.687 129.061 101.936 129.106L102.685 129.242C102.934 129.287 103.163 129.381 103.371 129.524L103.997 129.952C104.205 130.095 104.411 130.237 104.615 130.379L105.226 130.804C105.429 130.946 105.639 131.083 105.856 131.214L106.506 131.608C106.723 131.739 106.92 131.895 107.098 132.076L107.63 132.618C107.807 132.799 107.943 133.009 108.038 133.249L108.321 133.968C108.415 134.207 108.523 134.434 108.645 134.648L109.012 135.289C109.135 135.503 109.253 135.721 109.367 135.943L109.71 136.61C109.825 136.832 109.897 137.067 109.928 137.315L110.022 138.059C110.053 138.307 110.096 138.553 110.149 138.797L110.309 139.529C110.362 139.773 110.388 139.935 110.388 140.015L110.386 140.256C110.386 140.336 110.384 140.502 110.382 140.753L110.374 141.507ZM81.3796 139.007C81.3783 139.258 81.3567 139.507 81.3148 139.755L81.1891 140.5C81.1472 140.748 81.0745 140.987 80.9711 141.217L80.6607 141.906C80.5573 142.135 80.4476 142.36 80.3318 142.579L79.9844 143.235C79.8686 143.454 79.7638 143.68 79.6701 143.914L79.389 144.615C79.2954 144.849 79.1724 145.065 79.0202 145.265L78.5635 145.864C78.4113 146.064 78.2402 146.246 78.0503 146.41L77.4806 146.901C77.2907 147.065 77.1065 147.236 76.9279 147.414L76.3921 147.948C76.2135 148.126 76.0171 148.282 75.8029 148.415L75.1603 148.815C74.9461 148.949 74.7212 149.06 74.4857 149.15L73.7793 149.419C73.5438 149.508 73.3081 149.596 73.0722 149.683L72.3646 149.943C72.1288 150.029 71.8853 150.081 71.6343 150.098L70.8813 150.148C70.6303 150.165 70.3813 150.199 70.1343 150.251L69.3934 150.406C69.1464 150.458 68.8966 150.481 68.6439 150.477L67.8858 150.463C67.6331 150.458 67.386 150.418 67.1444 150.342L66.4198 150.113C66.1783 150.036 65.9393 149.96 65.703 149.884L64.9939 149.655C64.7576 149.578 64.5285 149.485 64.3067 149.375L63.6414 149.044C63.4197 148.934 63.1969 148.825 62.9733 148.717L62.3023 148.392C62.0787 148.284 61.8693 148.153 61.674 147.999L61.0884 147.536C60.8932 147.382 60.6954 147.229 60.4951 147.076L59.8942 146.618C59.6939 146.466 59.5293 146.281 59.4004 146.064L59.0138 145.413C58.885 145.196 58.7559 144.982 58.6268 144.771L58.2393 144.138C58.1101 143.927 57.9748 143.717 57.8333 143.508L57.4089 142.882C57.2674 142.673 57.1629 142.447 57.0955 142.205L56.8931 141.479C56.8256 141.237 56.7672 140.993 56.7178 140.748L56.5696 140.012C56.5203 139.767 56.4889 139.52 56.4756 139.27L56.4355 138.522C56.4222 138.273 56.4337 138.025 56.47 137.778L56.5791 137.038C56.6154 136.791 56.6217 136.539 56.5978 136.282L56.5262 135.512C56.5024 135.255 56.5343 135.008 56.6221 134.77L56.8854 134.057C56.9731 133.82 57.0696 133.587 57.1748 133.359L57.4904 132.675C57.5956 132.447 57.7104 132.224 57.8349 132.007L58.2083 131.355C58.3328 131.138 58.4661 130.926 58.6082 130.719L59.0345 130.098C59.1766 129.891 59.3358 129.698 59.512 129.519L60.0408 128.981C60.217 128.802 60.4127 128.648 60.628 128.518L61.2738 128.128C61.4891 127.998 61.6959 127.858 61.8943 127.709L62.4896 127.262C62.688 127.114 62.8987 126.984 63.1216 126.874L63.7903 126.543C64.0131 126.433 64.2441 126.345 64.4832 126.278L65.2003 126.078C65.4394 126.011 65.6769 125.934 65.9128 125.846L66.6207 125.582C66.8566 125.494 67.0997 125.44 67.3499 125.419L68.1003 125.356C68.3505 125.335 68.6011 125.328 68.8523 125.336L69.6057 125.358C69.8569 125.365 70.1052 125.393 70.3507 125.443L71.0873 125.591C71.3328 125.64 71.579 125.689 71.8259 125.736L72.5665 125.878C72.8134 125.925 73.0507 126.002 73.2784 126.108L73.9616 126.426C74.1894 126.533 74.4098 126.651 74.623 126.781L75.2624 127.173C75.4756 127.303 75.6765 127.449 75.8651 127.611L76.4311 128.097C76.6197 128.259 76.8224 128.407 77.039 128.54L77.6888 128.941C77.9054 129.074 78.0929 129.239 78.2512 129.436L78.7262 130.025C78.8846 130.221 79.0121 130.436 79.1088 130.671L79.3991 131.374C79.4958 131.608 79.6136 131.829 79.7525 132.037L80.1692 132.66C80.3081 132.867 80.4181 133.089 80.4994 133.325L80.7431 134.033C80.8243 134.269 80.8946 134.508 80.9539 134.75L81.1318 135.478C81.1911 135.72 81.231 135.966 81.2514 136.215L81.3126 136.961C81.333 137.21 81.3467 137.38 81.3538 137.47L81.3749 137.741C81.3819 137.831 81.3848 138.002 81.3835 138.253L81.3796 139.007ZM68.3468 113.002C68.3383 113.253 68.3089 113.5 68.2588 113.745L68.1085 114.481C68.0584 114.726 68.0121 114.973 67.9698 115.223L67.8428 115.972C67.8004 116.222 67.7259 116.461 67.6192 116.691L67.2992 117.379C67.1926 117.608 67.0532 117.817 66.8813 118.005L66.3653 118.57C66.1934 118.759 66.0426 118.959 65.913 119.171L65.5244 119.807C65.3948 120.019 65.2369 120.207 65.0505 120.371L64.4913 120.864C64.3049 121.028 64.1173 121.189 63.9284 121.347L63.3617 121.822C63.1728 121.98 62.974 122.125 62.7653 122.256L62.1391 122.65C61.9303 122.781 61.7164 122.905 61.4971 123.02L60.8395 123.367C60.6203 123.483 60.39 123.568 60.1485 123.624L59.4242 123.79C59.1828 123.845 58.9421 123.905 58.7022 123.969L57.9826 124.162C57.7427 124.226 57.4981 124.279 57.2488 124.32L56.5008 124.441C56.2515 124.482 56.0008 124.493 55.7489 124.473L54.9929 124.416C54.741 124.396 54.4907 124.362 54.2421 124.313L53.4963 124.166C53.2477 124.117 53.0128 124.029 52.7918 123.903L52.1286 123.524C51.9076 123.398 51.6796 123.29 51.4447 123.201L50.74 122.933C50.5051 122.844 50.2914 122.718 50.0989 122.557L49.5215 122.073C49.329 121.911 49.1285 121.759 48.92 121.617L48.2946 121.19C48.0862 121.048 47.9174 120.867 47.7883 120.648L47.4009 119.992C47.2718 119.773 47.1385 119.561 47.001 119.357L46.5884 118.743C46.4509 118.539 46.323 118.329 46.2047 118.112L45.8496 117.463C45.7313 117.247 45.6289 117.024 45.5424 116.793L45.2828 116.1C45.1963 115.869 45.1055 115.637 45.0105 115.405L44.7253 114.708C44.6302 114.475 44.5608 114.235 44.517 113.988L44.3858 113.245C44.342 112.998 44.3263 112.748 44.3385 112.497L44.3752 111.743C44.3874 111.491 44.3957 111.24 44.4002 110.988L44.4135 110.233C44.418 109.981 44.4703 109.739 44.5705 109.505L44.8713 108.804C44.9715 108.571 45.0497 108.333 45.1057 108.09L45.2738 107.362C45.3299 107.119 45.3987 106.878 45.4804 106.638L45.7254 105.92C45.807 105.68 45.9334 105.467 46.1045 105.279L46.6179 104.715C46.789 104.527 46.9406 104.326 47.0728 104.111L47.4694 103.468C47.6016 103.253 47.7545 103.054 47.928 102.87L48.4487 102.318C48.6222 102.134 48.819 101.98 49.0391 101.854L49.6993 101.477C49.9194 101.352 50.1422 101.236 50.3677 101.13L51.044 100.813C51.2695 100.707 51.4905 100.589 51.7072 100.46L52.357 100.071C52.5736 99.941 52.8074 99.8628 53.0584 99.8361L53.8114 99.756C54.0624 99.7293 54.3088 99.674 54.5506 99.5901L55.2759 99.3384C55.5177 99.2545 55.7651 99.2204 56.0181 99.2361L56.7771 99.2831C57.0302 99.2988 57.2782 99.3401 57.5211 99.4071L58.25 99.6082C58.493 99.6752 58.7402 99.722 58.9917 99.7486L59.7462 99.8284C59.9977 99.855 60.2388 99.9191 60.4694 100.021L61.1612 100.326C61.3918 100.428 61.6116 100.548 61.8206 100.688L62.4476 101.105C62.6566 101.244 62.8647 101.384 63.072 101.524L63.6938 101.946C63.901 102.086 64.1001 102.239 64.2909 102.403L64.8633 102.897C65.0542 103.062 65.2169 103.251 65.3515 103.465L65.7555 104.105C65.8902 104.319 66.0385 104.523 66.2006 104.717L66.6869 105.3C66.849 105.494 66.9663 105.713 67.039 105.956L67.2571 106.684C67.3298 106.927 67.4149 107.164 67.5124 107.394L67.8049 108.084C67.9024 108.314 67.9887 108.55 68.0638 108.791L68.289 109.516C68.3641 109.757 68.4116 110.004 68.4316 110.256L68.4916 111.012C68.5116 111.264 68.5102 111.431 68.4875 111.512L68.4195 111.755C68.3968 111.836 68.3812 112.001 68.3726 112.252L68.3468 113.002ZM90.9029 115.612C90.7957 116.109 90.5298 116.496 90.1052 116.775L88.8316 117.611C88.4071 117.89 87.9561 118.018 87.4788 117.996L86.0467 117.93C85.5693 117.908 85.0876 117.823 84.6015 117.676L83.1434 117.235C82.6573 117.088 82.3312 116.771 82.1651 116.282L81.6668 114.818C81.5007 114.329 81.4848 113.855 81.6191 113.395L82.0221 112.014C82.1564 111.554 82.3669 111.133 82.6535 110.752L83.5133 109.608C83.8 109.227 84.1813 109.004 84.6575 108.94L86.0859 108.748C86.562 108.684 87.0298 108.724 87.4893 108.867L88.8676 109.298C89.327 109.442 89.6916 109.719 89.9612 110.13L90.7701 111.364C91.0398 111.776 91.1922 112.097 91.2273 112.33L91.3327 113.028C91.3679 113.26 91.3318 113.625 91.2246 114.121L90.9029 115.612Z" stroke="black" stroke-width="4"/>
</svg>
